<?xml version="1.0" standalone="no"?>
<!DOCTYPE svg PUBLIC "-//W3C//DTD SVG 1.1//EN" "http://www.w3.org/Graphics/SVG/1.1/DTD/svg11.dtd" >
<svg xmlns="http://www.w3.org/2000/svg">
<metadata>
This is a custom SVG webfont generated by Fontspring.
</metadata>
<defs>
<font id="GothicExtrasC" horiz-adv-x="1556" >
<font-face units-per-em="2048" ascent="1638" descent="-410" />
<missing-glyph horiz-adv-x="204" />
<glyph unicode=" "  horiz-adv-x="204" />
<glyph unicode="&#x09;" horiz-adv-x="204" />
<glyph unicode="&#xa0;" horiz-adv-x="204" />
<glyph unicode="0" horiz-adv-x="204" d="M-20 0v29h245v-29h-245zM-20 78v168h245v-168h-245z" />
<glyph unicode="1" horiz-adv-x="204" d="M-20 1266v168h245v-168h-245zM-20 1188v29h245v-29h-245z" />
<glyph unicode="2" horiz-adv-x="819" d="M-20 0v29h860v-29h-860zM-20 78v168h860v-168h-860z" />
<glyph unicode="3" horiz-adv-x="819" d="M-20 1266v168h860v-168h-860zM-20 1188v29h860v-29h-860z" />
<glyph unicode="4" horiz-adv-x="819" d="M-20 217v29h860v-29h-860zM-20 0v168h860v-168h-860z" />
<glyph unicode="5" horiz-adv-x="819" d="M-20 1405v29h860v-29h-860zM-20 1188v168h860v-168h-860z" />
<glyph unicode="6" horiz-adv-x="245" d="M168 0h-168v860h168v-860zM246 0h-29v860h29v-860z" />
<glyph unicode="7" horiz-adv-x="245" d="M168 573h-168v861h168v-861zM246 573h-29v861h29v-861z" />
<glyph unicode="8" horiz-adv-x="245" d="M246 0h-168v860h168v-860zM29 0h-29v860h29v-860z" />
<glyph unicode="9" horiz-adv-x="245" d="M246 573h-168v861h168v-861zM29 573h-29v861h29v-861z" />
<glyph unicode="A" horiz-adv-x="2048" d="M174 647q0 184 64 291q25 0 64.5 2t53.5 2q92 0 101 -27q31 -2 53 -14q2 0 8 -16q233 117 529 116q141 0 364 -29.5t408 -74.5q2 0 12 -2l15 -3q5 -1 12.5 -5t10.5 -11.5t3 -17.5q0 -78 -141 -78q-74 0 -123 23q-47 -18 -113 -19q-49 0 -96 19q-12 -2 -35 -2 q-53 0 -74 12q10 -14 43 -53t51.5 -72t18.5 -67q0 -57 -24.5 -103.5t-69.5 -46.5q-4 -29 -26.5 -61.5t-51.5 -32.5q-12 0 -19 4q0 -31 -24.5 -68t-75.5 -37q-37 0 -78 30t-63 79q-57 -8 -97 -8q-72 0 -182 42t-160 48q2 -14 0 -46t-8 -42q-8 -20 -43 -31q4 -18 -8 -31 q-14 -16 -111 -16q-29 0 -73.5 2t-50.5 2q-64 106 -64 342zM422 909q-18 8 -68 9q-18 0 -53 -1.5t-49 -1.5q-33 -61 -37 -96q-1 -8 -1 -13q0 -14 7 -13q6 -2 12 16q8 23 15 8q4 -6 2 -24q-2 -27 8 -31q4 -2 8 8q2 2 2 4q10 33 15 35q8 2 4 -41q-2 -27 8 -33q6 -4 12 10 q0 4 2 11q8 39 17 41q12 4 12 -52q0 -39 12 -43q14 -2 21 58q6 83 51 149zM410 500l-4 14q0 18 24 18q10 0 16 -6l5 -18q-6 6 -17 6q-14 0 -24 -14zM471 442l8 -14q0 -18 -24 -18q-10 0 -15 4l-10 20q8 -6 19 -6q18 0 22 14zM1128 352l-8 17q25 2 34 14t13 37l9 -27 q-2 -16 -16 -29.5t-32 -11.5zM1323 569l-8 17q25 -2 34 13t11 48l8 -26q2 -23 -12.5 -39.5t-32.5 -12.5zM1229 453l-8 16q25 -2 34 13.5t11 47.5l8 -26q2 -23 -12.5 -39t-32.5 -12zM418 471.5q0 22.5 22 22.5q25 0 25 -21q0 -25 -23 -24q-24 0 -24 22.5zM1749 895 q0 -41 47 -41q39 0 39 25q-41 6 -86 16zM444 367q47 0 58 22q-55 119 -56 283q0 104 50 215q-20 8 -52 8q-55 -63 -55 -233q0 -84 15 -177t40 -118zM1855 858q0 14 -6 16q0 -16 -15 -26t-36 -10q-68 0 -67 59q-432 84 -691 84q-291 0 -534 -127q-35 -92 -35 -182 q0 -113 25 -178q70 -4 184.5 -48.5t193.5 -44.5q43 0 66 2.5t54.5 14.5t56.5 37q6 6 14 6t8 -10q0 -27 14.5 -55.5t14.5 -30.5q2 -8 -5 -14.5t-14 -6.5q-14 0 -26.5 12.5t-14.5 20.5q-2 6 4.5 10t10.5 0q2 -2 5 -7t4 -9t4 -7.5t5 -3.5q12 0 4 17q-18 41 -39 41 q-10 0 -27.5 -12.5t-15.5 -20.5q14 -35 49 -61.5t64 -26.5q39 0 60.5 30.5t21.5 67.5q0 35 -26.5 97.5t-53.5 103.5q-10 14 -3 23.5t19 -9.5q41 -59 89 -196q4 -10 16 -11q23 0 40 33t17 64q0 47 -20 84q-84 141 -99 198q-2 6 1.5 10.5t8.5 3.5t7 -8q29 -72 98 -188 q27 -47 27 -104q35 0 52 41t17 81q0 35 -22.5 72t-65.5 88t-63 82q-20 27 -2 31q8 2 16 -14l4 -9q27 -49 119 -49q20 0 33 2q41 -16 94 -16q74 0 115 18q45 -23 129 -22q116 0 116 57z" />
<glyph unicode="B" horiz-adv-x="2048" d="M1872 647q0 -236 -64 -342q-6 0 -51 -2t-74 -2q-96 0 -110 16q-12 12 -8 31q-35 10 -43 31q-6 10 -8.5 42t-0.5 46q-49 -6 -159.5 -48t-182.5 -42q-39 0 -96 8q-23 -49 -63.5 -79t-77.5 -30q-51 0 -75.5 37t-24.5 68q-6 -4 -19 -4q-29 0 -51.5 32.5t-26.5 61.5 q-45 0 -69.5 46t-24.5 104q0 35 18.5 67.5t51 71.5l43.5 53q-23 -12 -74 -12q-23 0 -35 2q-45 -18 -96 -19q-66 0 -113 19q-49 -23 -123 -23q-141 0 -141 78q0 10 3 17.5t10.5 11.5t12.5 5l15 3q10 2 12 2q184 45 407.5 74.5t364.5 29.5q295 0 529 -116q4 16 8 16 q23 12 53 14q8 27 101 27q14 0 54 -2t64 -2q64 -107 64 -291zM1624 909q45 -66 51 -149q6 -59 21 -58q12 4 12 43q0 55 12 52q8 -2 17 -41q4 -20 10 -21q12 2 12 33q-4 43 4 41q4 -2 15 -35q6 -20 14 -10q6 8 4 29q-2 31 6 28q6 0 10 -12q12 -31 19 -12q1 4 1 9.5t-1 12.5 q-4 35 -37 96q-14 0 -49 1.5t-53 1.5q-50 -1 -68 -9zM1640 514l-4 -14q-10 14 -24 14q-10 0 -17 -6l4 18q6 6 17 6q24 0 24 -18zM1567 428l8 14q4 -14 22 -14q8 0 19 6l-10 -20q-4 -4 -15 -4q-24 0 -24 18zM926 369l-8 -17q-18 -2 -32 11.5t-16 29.5l9 27q4 -25 13 -37 t34 -14zM731 586l-8 -17q-18 -4 -32.5 12.5t-12.5 39.5l8 26q2 -33 11 -48t34 -13zM825 469l-8 -16q-18 -4 -32.5 12t-12.5 39l8 26q2 -33 11 -48t34 -13zM1628 471.5q0 -22.5 -24 -22.5q-23 0 -23 24q0 20 25 21q22 0 22 -22.5zM297 895q-45 -10 -86 -16q0 -25 39 -25 q47 0 47 41zM1602 367q25 25 40 118t15 177q0 170 -55 233q-31 0 -52 -8q49 -111 49 -215q0 -164 -55 -283q13 -22 58 -22zM190 858q0 -57 117 -57q84 0 129 22q41 -18 115 -18q53 0 94 16q12 -2 33 -2q92 0 119 49q16 23 20 23q18 -4 -2 -31q-20 -31 -63 -82t-65.5 -88 t-22.5 -72q0 -41 17 -81.5t52 -40.5q0 57 27 104q70 117 98 188q2 6 7 7.5t8.5 -3t0.5 -10.5q-14 -57 -98 -198q-20 -37 -20 -84q0 -31 17.5 -64t39.5 -33q10 0 16 11l62 149q16 33 27 47q12 18 19 9t-3 -23q-27 -41 -53.5 -103.5t-26.5 -97.5q0 -37 21.5 -67.5t60.5 -30.5 q29 0 63.5 26.5t49.5 61.5q2 8 -15.5 20.5t-27.5 12.5q-20 0 -39 -41q-8 -16 4 -17q4 0 6 5.5t5 11.5t7 10t10.5 0t4.5 -10q-2 -8 -14.5 -20.5t-26.5 -12.5q-6 0 -13.5 6t-5.5 15q0 2 14.5 30.5t14.5 55.5q0 10 8 10t14 -6q25 -25 56.5 -37t54 -14.5t65.5 -2.5q80 0 195 44 t184 49q25 66 25 178q0 90 -35 182q-244 127 -534 127q-258 0 -691 -84q0 -59 -67 -59q-20 0 -35.5 10t-15.5 26q-7 -2 -7 -16z" />
<glyph unicode="C" horiz-adv-x="2048" d="M1032 1516q184 0 291 -64q0 -25 2 -64.5t2 -54.5q0 -92 -27 -100q-2 -31 -14 -53q0 -4 -16 -9q117 -233 116 -528q0 -141 -29.5 -364.5t-74.5 -407.5q0 -2 -2 -12l-3 -16q-1 -5 -5 -12t-11.5 -10t-17.5 -3q-78 0 -78 141q0 74 23 123q-18 47 -19 113q0 51 19 96 q-2 12 -2 35q0 51 12 73q-14 -10 -53 -42.5t-72 -51t-67 -18.5q-57 0 -103.5 24.5t-46.5 69.5q-29 4 -61.5 26.5t-32.5 51.5q0 12 4 18q-31 0 -67.5 24.5t-36.5 76.5q0 37 29.5 77.5t78.5 63.5q-8 57 -8 96q0 72 42 182.5t48 159.5q-14 -2 -46 0t-42 8q-20 8 -31 43 q-18 -4 -31 9q-16 14 -16 110q0 29 2 74t2 51q106 64 342 64zM1294 1268q8 18 9 67q0 18 -1.5 53t-1.5 50q-61 33 -96 37q-8 1 -13 1q-14 0 -13 -8q-2 -6 16 -12q23 -8 8 -14q-6 -4 -24 -2q-27 2 -31 -8q-2 -4 8 -9q2 -2 4 -2q33 -10 35 -14q2 -8 -41 -4q-27 2 -33 -8 q-4 -6 10 -13q4 0 11 -2q39 -8 41 -16q4 -12 -52 -12q-39 0 -43 -13q-2 -14 58 -20q83 -6 149 -51zM885 1280l14 4q18 0 19 -24q0 -10 -7 -17l-18 -4q6 6 6 16q0 15 -14 25zM827 1219l-14 -9q-18 0 -18 25q0 10 4 14l20 11q-6 -10 -6 -19q0 -18 14 -22zM737 561l17 8 q2 -25 14 -34t37 -13l-27 -8q-16 2 -29.5 15.5t-11.5 31.5zM954 367l17 8q-2 -25 13 -34t48 -11l-26 -8q-23 -2 -39.5 12.5t-12.5 32.5zM838 461l16 8q-2 -25 13.5 -34t47.5 -11l-26 -8q-23 -2 -39 12.5t-12 32.5zM856.5 1272q22.5 0 22.5 -23q0 -25 -21 -24q-25 0 -24 22 q0 25 22.5 25zM1280 -59q-41 0 -41 -47q0 -39 25 -39q6 41 16 86zM752 1245q0 -45 22 -57q119 55 283 55q104 0 215 -49q8 20 8 51q-63 55 -233 55q-84 0 -177 -15t-118 -40zM1243 -166q14 0 17 6q-16 0 -26.5 15.5t-10.5 35.5q0 68 59 68q84 432 84 690q0 291 -127 535 q-92 35 -182 35q-113 0 -178 -25q-4 -70 -48.5 -184.5t-44.5 -194.5q0 -43 2.5 -65.5t14.5 -54t37 -56.5q6 -6 6 -14.5t-10 -8.5q-27 0 -55.5 -14t-30.5 -14q-8 -2 -14.5 5t-6.5 13q0 14 12.5 26.5t20.5 14.5q6 2 10 -4t0 -10q-2 -2 -7 -5t-9 -4t-7.5 -4.5t-3.5 -5.5 q0 -12 17 -4q41 18 41 39q0 10 -12.5 27.5t-20.5 15.5q-35 -14 -61.5 -49t-26.5 -63q0 -39 30.5 -60.5t67.5 -21.5q35 0 97.5 26.5t103.5 53.5q14 10 23.5 2.5t-9.5 -19.5q-59 -41 -196 -88q-10 -6 -11 -16q0 -23 33 -40.5t64 -17.5q47 0 84 21q141 84 198 98q6 2 10.5 -1 t3.5 -8t-7 -7q-72 -29 -189 -99q-47 -27 -104 -26q0 -35 41 -52.5t82 -17.5q35 0 71.5 22.5t87.5 65.5t82 64q27 20 31 2q2 -8 -14 -17l-9 -4q-49 -27 -49 -118q0 -20 2 -33q-16 -41 -16 -94q0 -74 18 -115q-23 -45 -22 -129q0 -117 57 -117z" />
<glyph unicode="D" horiz-adv-x="2048" d="M1016 1516q236 0 342 -64q0 -6 2 -51t2 -74q0 -96 -16 -110q-12 -12 -31 -9q-10 -35 -31 -43q-10 -6 -42 -8t-46 0q6 -49 48 -159.5t42 -182.5q0 -39 -8 -96q49 -23 78.5 -64t29.5 -77q0 -51 -36.5 -76t-67.5 -25q4 -6 4 -18q0 -29 -32.5 -51.5t-61.5 -26.5 q0 -45 -46 -69.5t-104 -24.5q-35 0 -67.5 18.5t-71.5 51t-53 42.5q12 -23 12 -73q0 -23 -2 -35q18 -45 19 -96q0 -66 -19 -113q23 -49 23 -123q0 -141 -78 -141q-10 0 -17.5 3t-11.5 10t-5 12l-3 16q-2 10 -2 12q-45 184 -74.5 407.5t-29.5 364.5q0 295 116 528q-16 4 -16 9 q-12 23 -14 53q-27 8 -27 100q0 14 2 54t2 65q107 64 291 64zM754 1268q66 45 149 51q59 6 58 20q-4 12 -43 13q-55 0 -52 12q2 8 41 16q20 4 21 11q-2 12 -33 12q-43 -4 -41 4q2 4 35 14q20 6 10 15q-8 6 -29 4q-31 -2 -28 6q0 6 12 10q31 12 12 19q-4 1 -9.5 1t-12.5 -1 q-35 -4 -96 -37q0 -14 -1.5 -49t-1.5 -54q1 -49 9 -67zM1149 1284l14 -4q-14 -10 -14 -25q0 -10 6 -16l-18 4q-6 6 -7 17q1 24 19 24zM1235 1210l-14 9q14 4 14 22q0 8 -6 19l20 -11q4 -4 4 -14q0 -25 -18 -25zM1294 569l17 -8q2 -18 -11.5 -31.5t-29.5 -15.5l-27 8 q25 4 37 13t14 34zM1077 375l17 -8q4 -18 -12.5 -33t-39.5 -12l-26 8q33 2 48 11t13 34zM1194 469l16 -8q4 -18 -12 -32.5t-39 -12.5l-26 8q33 2 48 11t13 34zM1191.5 1272q22.5 0 22.5 -25q0 -23 -24 -22q-20 0 -21 24q0 23 22.5 23zM768 -59q10 -45 16 -86q25 0 25 39 q0 47 -41 47zM1296 1245q-25 25 -118 40t-177 15q-170 0 -233 -55q0 -31 8 -51q111 49 215 49q164 0 283 -55q22 12 22 57zM805 -166q57 0 57 117q0 84 -22 129q18 41 18 115q0 53 -16 94q2 12 2 33q0 92 -49 118q-23 16 -23 21q4 18 31 -2q31 -20 82 -63.5t88 -66t71 -22.5 q41 0 82 17.5t41 52.5q-57 0 -104 26q-117 70 -189 99q-6 2 -7 7t3 8t11 1q57 -14 198 -98q37 -20 84 -21q31 0 64 17.5t33 40.5q0 10 -11 16l-149 62q-33 16 -47 26q-18 12 -9 19.5t23 -2.5q41 -27 103.5 -53.5t97.5 -26.5q37 0 67.5 21.5t30.5 60.5q0 29 -26.5 63.5 t-61.5 48.5q-8 2 -20.5 -15.5t-12.5 -27.5q0 -20 41 -39q16 -8 17 4q0 4 -5.5 6.5l-11.5 5.5t-10 7t0 10t10 4q8 -2 20.5 -14t12.5 -27q0 -6 -6 -13t-15 -5q-2 0 -30.5 14t-55.5 14q-10 0 -10 8.5t6 14.5q25 25 37 56.5t14.5 54t2.5 65.5q0 80 -44 194.5t-49 184.5 q-66 25 -178 25q-90 0 -182 -35q-127 -244 -127 -535q0 -258 84 -690q59 0 59 -68q0 -20 -10 -35.5t-27 -15.5q3 -6 17 -6z" />
<glyph unicode="E" horiz-adv-x="2048" d="M1016 -80q-184 0 -291 64q0 25 -2 64.5t-2 53.5q0 92 27 101q2 31 14 53q0 2 16 8q-117 233 -116 529q0 141 29.5 364t74.5 408q0 2 2 12l3 15q1 5 5 12.5t11.5 10.5t17.5 3q78 0 78 -141q0 -74 -23 -123q18 -47 19 -113q0 -49 -19 -96q2 -12 2 -35q0 -53 -12 -74 q14 10 53 43t72 51.5t67 18.5q57 0 103.5 -24.5t46.5 -69.5q29 -4 61.5 -26.5t32.5 -51.5q0 -12 -4 -19q31 0 67.5 -24.5t36.5 -75.5q0 -37 -29.5 -78t-78.5 -63q8 -57 8 -96q0 -72 -42 -182.5t-48 -159.5q14 2 46 -0.5t42 -8.5q20 -8 31 -43q18 4 31 -8q16 -14 16 -110 q0 -29 -2 -74t-2 -51q-106 -64 -342 -64zM754 168q-8 -18 -9 -68q0 -18 1.5 -53t1.5 -49q61 -33 96 -37q8 -1 13 -1q14 0 13 7q2 6 -16 13q-23 8 -8 14q6 4 24 2q27 -2 31 8q2 4 -8 8q-2 2 -4 2q-33 10 -35 15q-2 8 41 4q27 -2 33 8q4 6 -10 12q-4 0 -11 2q-39 8 -41 17 q-4 12 52 12q39 0 43 12q2 14 -58 21q-83 6 -149 51zM1163 156l-14 -4q-18 0 -19 24q0 10 7 17l18 4q-6 -6 -6 -17q0 -14 14 -24zM1221 217l14 8q18 0 18 -24q0 -10 -4 -15l-20 -10q6 8 6 19q0 18 -14 22zM1311 874l-17 -8q-2 25 -14 34t-37 13l27 9q16 -2 29.5 -16 t11.5 -32zM1094 1069l-17 -8q2 25 -13 34t-48 11l26 8q23 2 39.5 -12.5t12.5 -32.5zM1210 975l-16 -8q2 25 -13.5 34t-47.5 11l26 8q23 2 39 -12.5t12 -32.5zM1191.5 164q-22.5 0 -22.5 22q0 25 21 25q25 0 24 -23q0 -24 -22.5 -24zM768 1495q41 0 41 47q0 39 -25 39 q-6 -41 -16 -86zM1296 190q0 47 -22 58q-119 -55 -283 -55q-104 0 -215 49q-8 -20 -8 -52q63 -55 233 -55q84 0 177 15t118 40zM805 1602q-14 0 -17 -7q16 0 26.5 -15t10.5 -36q0 -68 -59 -67q-84 -432 -84 -691q0 -291 127 -534q92 -35 182 -35q113 0 178 25 q4 70 48.5 184.5t44.5 194.5q0 43 -2.5 65.5t-14.5 54t-37 56.5q-6 6 -6 14t10 8q27 0 55.5 14.5t30.5 14.5q8 2 14.5 -5t6.5 -14q0 -14 -12.5 -26t-20.5 -15q-6 -2 -10 4.5t0 10.5q2 2 7 5t9 4t7.5 4t3.5 5q0 12 -17 4q-41 -18 -41 -39q0 -10 12.5 -27.5t20.5 -15.5 q35 14 61.5 49t26.5 64q0 39 -30.5 60.5t-67.5 21.5q-35 0 -97.5 -26.5t-103.5 -53.5q-14 -10 -23.5 -3t9.5 19q59 41 196 89q10 4 11 16q0 23 -33 40t-64 17q-47 0 -84 -20q-141 -84 -198 -98q-6 -2 -10.5 1t-3.5 8t7 7q72 29 189 98q47 27 104 27q0 35 -41 52t-82 17 q-35 0 -71.5 -22.5t-87.5 -65.5t-82 -63q-27 -20 -31 -2q-2 8 14 16l9 4q49 27 49 119q0 20 -2 33q16 41 16 94q0 74 -18 115q23 45 22 129q0 117 -57 117z" />
<glyph unicode="F" horiz-adv-x="2048" d="M1032 -80q-236 0 -342 64q0 6 -2 51t-2 74q0 96 16 110q12 12 31 8q10 35 31 43q10 6 42 8.5t46 0.5q-6 49 -48 159.5t-42 182.5q0 39 8 96q-49 23 -78.5 63.5t-29.5 77.5q0 51 36.5 75.5t67.5 24.5q-4 6 -4 19q0 29 32.5 51.5t61.5 26.5q0 45 46 69.5t104 24.5 q35 0 67.5 -18.5t71.5 -51l53 -43.5q-12 20 -12 74q0 23 2 35q-18 47 -19 96q0 66 19 113q-23 49 -23 123q0 141 78 141q10 0 17.5 -3t11.5 -10.5t5 -12.5l3 -15q2 -10 2 -12q45 -184 74.5 -407.5t29.5 -364.5q0 -295 -116 -529q16 -6 16 -8q12 -23 14 -53q27 -8 27 -101 q0 -14 -2 -54t-2 -64q-107 -64 -291 -64zM1294 168q-66 -45 -149 -51q-59 -6 -58 -21q4 -12 43 -12q55 0 52 -12q-2 -8 -41 -17q-20 -4 -21 -10q2 -12 33 -12q43 4 41 -4q-2 -4 -35 -15q-20 -6 -10 -14q8 -6 29 -4q31 2 28 -6q0 -6 -12 -10q-31 -12 -12 -19q4 -1 9.5 -1 t12.5 1q35 4 96 37q0 14 1.5 49t1.5 53q-1 50 -9 68zM899 152l-14 4q14 10 14 24q0 10 -6 17l18 -4q6 -6 7 -17q-1 -24 -19 -24zM813 225l14 -8q-14 -4 -14 -22q0 -10 6 -19l-20 10q-4 4 -4 15q0 24 18 24zM754 866l-17 8q-2 18 11.5 32t29.5 16l27 -9q-25 -4 -37 -13 t-14 -34zM971 1061l-17 8q-4 18 12.5 32.5t39.5 12.5l26 -8q-33 -2 -48 -11t-13 -34zM854 967l-16 8q-4 18 12 32.5t39 12.5l26 -8q-33 -2 -48 -11t-13 -34zM856.5 164q-22.5 0 -22.5 24q0 23 24 23q20 0 21 -25q0 -22 -22.5 -22zM1280 1495q-10 45 -16 86q-25 0 -25 -39 q0 -47 41 -47zM752 190q25 -25 118 -40t177 -15q170 0 233 55q0 31 -8 52q-111 -49 -215 -49q-164 0 -283 55q-22 -11 -22 -58zM1243 1602q-57 0 -57 -117q0 -84 22 -129q-18 -41 -18 -115q0 -53 16 -94q-2 -12 -2 -33q0 -92 49 -119q23 -16 23 -20q-4 -18 -31 2 q-31 20 -82 63t-88 65.5t-71 22.5q-41 0 -82 -17t-41 -52q57 0 104 -27q117 -70 189 -98q6 -2 7 -7t-3 -8.5t-11 -0.5q-57 14 -198 98q-37 20 -84 20q-31 0 -64 -17.5t-33 -39.5q0 -12 11 -16l149 -62q33 -16 47 -27q18 -12 9 -19t-23 3q-41 27 -103.5 53.5t-97.5 26.5 q-37 0 -67.5 -21.5t-30.5 -60.5q0 -29 26.5 -63.5t61.5 -49.5q8 -2 20.5 15.5t12.5 27.5q0 20 -41 39q-16 8 -17 -4q0 -4 5.5 -6t11.5 -5t10 -7t0 -10.5t-10 -4.5q-8 2 -20.5 14.5t-12.5 26.5q0 6 6 13.5t15 5.5q2 0 30.5 -14.5t55.5 -14.5q10 0 10 -8t-6 -14 q-25 -25 -37 -56.5t-14.5 -54t-2.5 -65.5q0 -80 44 -195t49 -184q66 -25 178 -25q90 0 182 35q127 244 127 534q0 258 -84 691q-59 0 -59 67q0 20 10 35.5t27 15.5q-3 7 -17 7z" />
<glyph unicode="G" d="M639 717l-102 -70h139l-47 -141l106 82l43 -129l43 129l107 -82l-47 141h139l-102 70l102 69h-139l47 142l-107 -82l-43 129l-43 -129l-106 82l47 -142h-139zM395 717l-293 211h377l-119 368l306 -221l112 344l113 -344l305 221l-119 -368h377l-293 -211l293 -211h-377 l119 -369l-305 221l-113 -344l-112 344l-306 -221l119 369h-377z" />
<glyph unicode="H" d="M932 928h92l84 248zM1315 549l-281 82l27 -82h254zM651 1024l-205 152l177 -240zM778 160v276l-69 -51zM438 682l-192 -135l262 86zM395 717l-293 211h377l-119 368l306 -221l112 344l113 -344l305 221l-119 -368h377l-293 -211l293 -211h-377l119 -369l-305 221 l-113 -344l-112 344l-306 -221l119 369h-377zM256 879l502 -162l-92 162h-410zM459 260l309 428l-182 -39zM1110 264l-313 426l-19 -186zM1305 883l-502 -166l172 -76zM778 1260l2 -529l125 139z" />
<glyph unicode="I" d="M778 1419l113 -344l305 221l-119 -368h377l-293 -211l293 -211h-377l119 -369l-305 221l-113 -344l-112 344l-306 -221l119 369h-377l293 211l-293 211h377l-119 368l306 -221zM778 162l90 270l242 -174l-94 293h299l-232 166l232 166h-299l94 295l-244 -177l-88 269 l-88 -269l-244 177l95 -295h-299l231 -166l-231 -166h299l-95 -293l242 174zM778 1159l70 -213l199 144l-78 -242h237l-182 -131l182 -131h-237l78 -238l-197 141l-72 -215l-71 215l-197 -141l78 238h-238l182 131l-182 131h238l-78 242l199 -144z" />
<glyph unicode="J" d="M469 717l102 -74l-28 -92h108l39 -121l88 62l88 -62l39 121h109l-29 92l102 74l-102 74l29 92h-109l-39 121l-88 -62l-88 62l-39 -121h-108l28 -92zM946 716.5q0 -69.5 -49 -118.5t-118.5 -49t-119 49t-49.5 118.5t49.5 119t119 49.5t118.5 -49.5t49 -119zM655 717 q0 -51 36 -87t87 -36t87 36t36 87t-36 87t-87 36t-87 -36t-36 -87zM528 928h90l33 104l-202 148zM518 809l-24 74h-252l188 -138zM778 997l74 52l-74 221l-73 -221zM938 928h90l80 252l-203 -148zM1063 883l-25 -74l88 -64l189 138h-252zM618 506h-90l-79 -252l202 147z M494 551l24 74l-88 63l-188 -137h252zM852 385l-74 51l-73 -51l73 -221zM391 717l-289 211h377l-117 370l304 -221l112 342l113 -342l303 221l-117 -370h377l-289 -211l289 -211h-377l117 -371l-303 221l-113 -342l-112 342l-304 -221l117 371h-377zM1028 506h-90l-33 -105 l203 -147zM1038 625l25 -74h252l-189 137z" />
<glyph unicode="K" d="M891 356l-113 -342l-112 342l-304 -221l117 371h-377l289 211l-289 211h377l-117 370l304 -221l112 342l113 -342l303 221l-117 -370h377l-289 -211l289 -211h-377l117 -371zM905 883l-127 387l-127 -387h-409l329 -240l-125 -389l332 238l332 -238l-125 389l330 240 h-410zM778 631l-125 -90l47 147l-122 90h153l47 146l47 -146h154l-123 -90l47 -147z" />
<glyph unicode="L" d="M778 1419l113 -344l305 221l-119 -368h377l-293 -211l293 -211h-377l119 -369l-305 221l-113 -344l-112 344l-306 -221l119 369h-377l293 211l-293 211h377l-119 368l306 -221zM778 162l90 270l242 -174l-94 293h299l-232 166l232 166h-299l94 295l-244 -177l-88 269 l-88 -269l-244 177l95 -295h-299l231 -166l-231 -166h299l-95 -293l242 174zM778 535l-276 -199l106 321l-272 195h338l104 317l105 -317h338l-273 -195l107 -321z" />
<glyph unicode="M" d="M526 717l84 -27l-73 -51h96l-62 -84l86 31l-28 -88l69 53v-88l52 72l28 -84l29 84l51 -72v88l70 -53l-29 88l86 -31l-61 84h96l-74 51l84 27l-84 26l74 52h-96l61 84l-86 -31l29 88l-70 -53v88l-51 -72l-29 84l-28 -84l-52 72v-88l-69 53l28 -88l-86 31l62 -84h-96 l73 -52zM1487 717l-232 -76l199 -143h-252l152 -211l-232 75l74 -233l-201 145v-233l-141 195l-76 -230l-76 230l-141 -195v233l-201 -145l74 233l-231 -75l151 211h-252l199 143l-231 76l231 76l-199 143h252l-151 211l231 -76l-74 234l201 -146v234l141 -195l76 229 l76 -229l141 195v-234l201 146l-74 -234l232 76l-152 -211h252l-199 -143z" />
<glyph unicode="N" d="M440 688l-192 -135l262 86zM449 266l315 434l-182 -38zM487 514h-69l-86 -115zM217 717h191l-62 41zM1487 717l-232 -76l199 -143h-252l152 -211l-232 75l74 -233l-201 145v-233l-141 195l-76 -230l-76 230l-141 -195v233l-201 -145l74 233l-231 -75l151 211h-252 l199 143l-231 76l231 76l-199 143h252l-151 211l231 -76l-74 234l201 -146v234l141 -195l76 229l76 -229l141 195v-234l201 146l-74 -234l232 76l-152 -211h252l-199 -143zM702 389l70 -225l-2 276zM1106 266l-315 434l-19 -184zM883 381l-21 -66l82 -118zM606 186l60 181 l-58 -45zM1069 547l236 -2l-265 82zM1311 893l-510 -166l168 -74zM1133 717l55 -41l139 41h-194zM1231 393l-152 113l25 -70zM1032 946l74 223l-158 -225zM778 1282v-537l121 138zM891 1059l55 39l4 145zM1229 1053l-154 -111l74 2zM641 1032l-190 139l165 -219zM242 895 l512 -166l-95 158zM489 932l-20 65l-137 50zM600 1251l57 -180l21 72z" />
<glyph unicode="O" d="M1487 717l-232 -76l199 -143h-252l152 -211l-232 75l74 -233l-201 145v-233l-141 195l-76 -230l-76 230l-141 -195v233l-201 -145l74 233l-231 -75l151 211h-252l199 143l-231 76l231 76l-199 143h252l-151 211l231 -76l-74 234l201 -146v234l141 -195l76 229l76 -229 l141 195v-234l201 146l-74 -234l232 76l-152 -211h252l-199 -143zM1157 655l184 62l-186 61l162 113h-205l123 170l-180 -60l57 187l-162 -117v184l-112 -155l-60 182l-61 -184l-111 153v-180l-160 115l58 -187l-185 62l123 -170h-198l155 -113l-184 -61l186 -62l-161 -112 h204l-122 -170l180 59l-58 -186l162 116v-184l111 154l61 -180l62 184l110 -154v180l162 -114l-59 182l182 -55l-121 168h199zM1235 717l-154 -51l123 -88h-157l100 -142l-148 47l48 -145l-132 92v-139l-86 121l-51 -152l-49 148l-88 -123v147l-133 -96l45 147l-141 -45 l100 140h-162l129 88l-157 51l151 51l-123 88h162l-100 139l145 -51l-47 152l131 -90v137l86 -121l51 149l47 -149l90 125v-146l134 97l-45 -148l141 45l-105 -139h166l-129 -88z" />
<glyph unicode="P" d="M778 993l76 54l-76 231l-76 -231zM854 387l-76 53l-76 -53l76 -231zM70 717l231 76l-199 143h252l-151 211l231 -76l-74 234l201 -146v234l141 -195l76 229l76 -229l141 195v-234l201 146l-74 -234l232 76l-152 -211h252l-199 -143l232 -76l-232 -76l199 -143h-252 l152 -211l-232 75l74 -233l-201 145v-233l-141 195l-76 -230l-76 230l-141 -195v233l-201 -145l74 233l-231 -75l151 211h-252l199 143zM745 836l-102 73l43 -133h-125l82 -61l-82 -60h125l-43 -133l102 74l33 -98l31 98l102 -74l-45 133h129l-84 60l84 61h-129l45 133 l-102 -73l-31 98zM1040 803l76 -55l197 143h-244zM487 543l29 88l-76 55l-196 -143h243zM940 940h94l74 231l-197 -143zM645 406l-29 88h-94l-73 -232zM616 940l29 88l-196 143l73 -231h94zM1034 494h-94l-29 -88l197 -144zM516 803l-29 88h-243l196 -143zM1116 686l-76 -55 l29 -88h244z" />
<glyph unicode="Q" d="M301 641l-231 76l231 76l-199 143h252l-151 211l231 -76l-74 234l201 -146v234l141 -195l76 229l76 -229l141 195v-234l201 146l-74 -234l232 76l-152 -211h252l-199 -143l232 -76l-232 -76l199 -143h-252l152 -211l-232 75l74 -233l-201 145v-233l-141 195l-76 -230 l-76 230l-141 -195v233l-201 -145l74 233l-231 -75l151 211h-252zM905 883l-127 387l-127 -387h-409l329 -240l-125 -389l332 238l332 -238l-125 389l330 240h-410zM778 631l-125 -90l47 147l-122 90h153l47 146l47 -146h154l-123 -90l47 -147z" />
<glyph unicode="R" d="M70 717l231 76l-199 143h252l-151 211l231 -76l-74 234l201 -146v234l141 -195l76 229l76 -229l141 195v-234l201 146l-74 -234l232 76l-152 -211h252l-199 -143l232 -76l-232 -76l199 -143h-252l152 -211l-232 75l74 -233l-201 145v-233l-141 195l-76 -230l-76 230 l-141 -195v233l-201 -145l74 233l-231 -75l151 211h-252l199 143zM778 164l90 270l242 -174l-94 293h299l-232 166l232 166h-299l94 295l-244 -176l-88 268l-88 -268l-244 176l95 -295h-299l231 -166l-231 -166h299l-95 -293l242 174zM778 537l-276 -199l106 321l-272 195 h338l104 317l105 -317h338l-273 -195l107 -321z" />
<glyph unicode="S" horiz-adv-x="819" d="M-20 1266v168h860v-168h-860zM-20 1188v29h860v-29h-860z" />
<glyph unicode="T" horiz-adv-x="819" d="M0 1434h819v-168h-651v-652h-168v820zM565 1217h254v-29h-225v-191h-158v-157h-190v-224h-29v252h191v129h-191v220h219v-191h129v191zM246 1188v-162h162v162h-162z" />
<glyph unicode="U" horiz-adv-x="819" d="M539 1217h280v-29h-260q-23 -129 -103.5 -210t-209.5 -104v-260h-29v281q131 14 219.5 102.5t102.5 219.5zM0 1102h133q88 0 143.5 55t55.5 143v134h487v-168h-319q0 -139 -96.5 -235.5t-235.5 -96.5v-320h-168v488zM133 1165q-55 0 -94 40t-39 95.5t39 94.5t94 39 t95 -39t40 -94.5t-40 -95.5t-95 -40z" />
<glyph unicode="V" horiz-adv-x="839" d="M-268 1434q-35 31 -35 88q0 76 63 100v-12q0 -84 58.5 -130t144.5 -46h37v36q0 86 -46 144.5t-132 58.5h-10q23 61 100 62q57 0 88 -33q0 43 23.5 93t60.5 65q37 -14 60.5 -64.5t23.5 -93.5q31 33 88 33q78 0 100 -62q-74 -45 -92 -90t-18 -113v-36h594v-168h-594v-49 h594v-29h-594v-574h-29v574h-49v-574h-168v574h-37q-35 0 -54.5 -2t-47 -12.5t-52 -34t-49.5 -62.5q-63 25 -63 101q0 57 35 88q-43 0 -93.5 23.5t-64.5 60.5q14 37 64.5 60.5t93.5 23.5zM168 1470v-36h49v36q0 145 100 201q-72 -8 -110.5 -64.5t-38.5 -136.5zM-37 1266 q-80 0 -136 -39t-65 -111q55 100 201 101h37v49h-37zM168 1266v-49h49v49h-49z" />
<glyph unicode="W" horiz-adv-x="1050" d="M1051 1188h-215q-244 0 -417 -173t-173 -417v-188h-29v188q0 256 181.5 437.5t437.5 181.5h215v-29zM0 410v188q0 246 125 440q26 43 26 81q0 8 -1 15q-6 44 -39 44q4 -20 -11.5 -39t-42.5 -19q-25 0 -41 16.5t-16 41.5q0 49 39 67q25 12 52 12q15 0 30 -4 q-121 53 -121 181q127 0 180 -121q-4 15 -3 30q0 27 11 52q18 39 68 39q25 0 41 -16.5t16 -41.5q0 -27 -18.5 -42t-38.5 -11q0 -33 44 -39q7 -1 15 -1q38 0 80 26q195 125 441 125h215v-168h-215q-199 0 -353 -101q-53 -34 -118 -33q-34 0 -72 9q9 -38 9 -72q0 -66 -34 -119 q-100 -154 -100 -352v-188h-168z" />
<glyph unicode="X" horiz-adv-x="1228" d="M989 1434h240v-168h-983v-49h983v-29h-486l-497 -498v-485h-29v457l-49 -50v-407h-168v239l-51 -51l-21 21l774 774h-69l-739 -739l-119 118l225 226v395h-205v29h205v49h-205v168h205v204h168v-677l49 49v628h29v-204h395l225 225l119 -119l-106 -106h69l72 71l20 -20z M395 1188h-149v-150z" />
<glyph unicode="Y" horiz-adv-x="1228" d="M557 1266v-758h369v369h-291v-50h242v-270h-271v660h623v-29h-594v-144h459v-591l-113 -113h-592v459h-143v-594h-29v622h172v50h-221v-672h-168v727l113 112h276v277l113 113h727v-168h-672zM635 799v-213h213v213h-213z" />
<glyph unicode="Z" horiz-adv-x="1435" d="M422 1217v-568h47v617h-301v-301h225v47h-176v205h205zM784 1434h652v-168h-484v-226h47v177h437v-29h-408v-148h393v-634h-393v-394h-635v394h-147v-406h-29v434h567v47h-616v-481h-168v649h393v148h-393v637h637v-394h147v394zM1343 481h-315v-47h365v578h-756v-47h706 v-484zM469 90v316h-47v-365h577v756h-47v-707h-483zM1178 797h-150v-148h150v148zM784 256v150h-147v-150h147zM637 797v-148h147v148h-147zM393 1188h-147v-148h147v148z" />
<glyph unicode="a" horiz-adv-x="2048" d="M244 938q25 0 64.5 2t53.5 2q92 0 101 -27q35 -4 49 -14q6 -4 10 -24q25 0 214.5 52t310.5 52q254 0 686 -84q0 -61 71 -61q23 0 39.5 12t16.5 26q6 -2 6 -16q0 -61 -97 -70q-23 -2 -42 -1q-66 0 -105 20q-48 -16 -98 -17q-55 0 -111 21q-44 -19 -74 -19q-11 0 -20 3 q-33 10 -64 53q-4 4 -7 11t-6 9t-7 2q-18 -4 2 -30q20 -31 63 -82t66 -88t23 -72q0 -41 -17.5 -82t-52.5 -41q0 57 -27 105q-70 117 -98 188q-2 6 -7 7t-8 -3t-1 -10q14 -57 98 -199q20 -37 20 -84q0 -31 -17 -63.5t-40 -32.5q-10 0 -16 10l-62 150q-16 33 -26 47 q-12 18 -19.5 9t2.5 -24q27 -41 53.5 -103t26.5 -97q0 -37 -21.5 -68t-60.5 -31q-29 0 -66.5 30t-52.5 65q-2 8 15.5 20t28 12t24.5 -17t20 -30q8 -16 -4 -16q-4 0 -8 6t-8 14.5t-8 12.5t-10.5 0t-4.5 -11q2 -8 17.5 -23t30.5 -15q6 0 13 6t5 14q0 2 -17.5 35t-17.5 57 q0 10 -8 10t-12 -4q-70 -61 -172 -61q-78 0 -192 52t-183 56q-4 0 -5 -6t2 -12t7 -6q18 0 31 -6q8 -6 2 -38t-13 -42q-8 -20 -43 -31q4 -18 -8 -31q-6 -6 -27.5 -10t-53 -5t-59.5 0l-57 2q-30 1 -38 1q-63 106 -64 342q1 185 64 291zM223 428q4 -35 37 -96q10 0 54 -2 q29 -1 52 -2q11 0 21 1q29 1 43 9q-45 66 -51 149q-6 59 -21 58q-12 -4 -12 -43q0 -55 -12 -51q-8 2 -17 41q-4 20 -10 20q-12 -2 -12 -33q4 -43 -4 -41q-4 2 -15 35q-6 20 -14 10q-6 -8 -4 -28q2 -31 -6 -29q-6 0 -10 12q-12 31 -19 13q-1 -4 -1 -10t1 -13zM1755 895 q45 -10 86 -16q0 -25 -39 -25q-47 0 -47 41zM1227 449l8 -17q18 -4 32.5 12.5t12.5 38.5l-8 27q-2 -33 -11 -48t-34 -13zM1321 565l8 -16q18 -4 32.5 12.5t12.5 38.5l-8 27q-2 -33 -11 -48.5t-34 -13.5zM1126 348l9 -16h4q15 0 27 11q13 13 16 30l-8 26q-4 -25 -13.5 -37 t-34.5 -14zM451 367q45 0 57 22q-55 119 -55 283q0 106 47 213q-14 10 -49 10q-55 -63 -56 -233q0 -84 15.5 -177t40.5 -118zM424 471.5q0 22.5 22 22.5q25 0 25 -21q0 -25 -22 -24q-25 0 -25 22.5zM477 442l8 -14q0 -18 -24 -18q-10 0 -15 4l-10 20q10 -6 19 -6q18 0 22 14 zM416 500l-4 14q0 18 24 18q10 0 17 -6l4 -18q-6 6 -17 6q-14 0 -24 -14z" />
<glyph unicode="b" horiz-adv-x="2048" d="M1634 514l-4 -14q-10 14 -24 14q-10 0 -17 -6l4 18q6 6 17 6q24 0 24 -18zM1561 428l8 14q4 -14 22 -14q10 0 19 6l-11 -20q-4 -4 -14 -4q-24 0 -24 18zM1622 471.5q0 -22.5 -25 -22.5q-23 0 -22 24q0 20 24 21q23 0 23 -22.5zM1595 367q25 25 40.5 118t15.5 177 q0 170 -56 233q-35 0 -49 -10q47 -106 47 -213q0 -164 -55 -283q10 -22 57 -22zM911 332l9 16q-25 2 -34 14.5t-14 36.5l-8 -26q2 -16 15.5 -29.5t31.5 -11.5zM717 549l8 16q-25 -2 -34 13.5t-11 48.5l-8 -27q-2 -23 12.5 -39t32.5 -12zM811 432l8 17q-25 -2 -34 13t-11 48 l-8 -27q-2 -23 12.5 -39t32.5 -12zM291 895q0 -41 -47 -41q-39 0 -39 25q41 6 86 16zM1823 428q4 27 -6 27q-6 2 -13 -17q-8 -23 -14 -8q-4 6 -2 25q2 27 -8 30q-4 2 -8 -8q-2 -2 -3 -4q-10 -33 -14 -35q-8 -2 -4 41q2 27 -8 33q-6 4 -12 -10q0 -4 -2 -10q-8 -39 -17 -41 q-12 -4 -12 51q0 39 -12 43q-14 2 -21 -58q-6 -84 -51 -149q14 -8 43 -9q10 0 21 -1q23 0 52 2q44 2 54 2q33 61 37 96zM1802 938q63 -106 64 -291q0 -236 -64 -342q-8 0 -38 -1l-57 -2q-28 -1 -59.5 0t-53 5t-27.5 10q-12 12 -8 31q-35 10 -43 31q-6 10 -12.5 42t1.5 38 q12 6 31 6q4 0 7 6t2 12t-5 6q-70 -4 -183.5 -56t-191.5 -52q-100 0 -172 61q-4 4 -12 4t-8 -10q0 -25 -17.5 -57.5t-17.5 -34.5q-2 -8 5 -14t13 -6q14 0 29.5 15t18.5 23q2 6 -4.5 10.5t-10.5 0.5t-8 -12.5t-8 -14.5t-8 -6q-12 0 -4 16q6 12 20 29.5t24.5 17.5t28 -12 t15.5 -20q-14 -35 -52.5 -65t-66.5 -30q-39 0 -60.5 31t-21.5 68q0 35 26.5 97.5t53.5 102.5q10 14 3 23.5t-20 -8.5q-41 -59 -88 -197q-4 -10 -16 -10q-23 0 -40 33t-17 63q0 47 20 84q84 141 98 199q2 6 -1 10t-8 3t-7 -7q-29 -72 -98 -188q-27 -47 -27 -105 q-35 0 -52.5 41t-17.5 82q0 35 22.5 72t65.5 88t64 82q20 27 2 30q-4 0 -7 -2t-6 -9t-7 -11q-31 -43 -64 -53q-9 -3 -20 -3q-29 0 -74 19q-56 -21 -111 -21q-49 0 -98 17q-39 -20 -105 -20q-20 0 -43 1q-96 8 -96 70q0 14 6 16q0 -14 16.5 -26t39.5 -12q72 0 71 61 q432 84 686 84q121 0 310.5 -52t214.5 -52q4 20 10 24q14 10 49 14q8 27 100 27q14 0 54 -2t65 -2z" />
<glyph unicode="c" horiz-adv-x="2048" d="M1333 1444q0 -25 2 -65t2 -54q0 -92 -26 -100q-4 -35 -15 -49q-4 -6 -24 -11q0 -25 52 -214t52 -310q0 -254 -84 -686q-61 0 -61 -72q0 -23 12 -39t27 -16q-4 -6 -17 -6q-61 0 -69 96q-2 23 -2 43q0 66 20 105q-16 48 -16 97q0 55 20 111q-19 44 -19 74q0 11 3 21 q10 33 53 63q4 4 11.5 7t9.5 6.5t2 7.5q-4 18 -31 -2q-31 -20 -82 -63.5t-88 -66t-72 -22.5q-41 0 -82 17.5t-41 52.5q57 0 105 26q117 70 188 99q6 2 7 7t-3 8t-10 1q-57 -14 -199 -98q-37 -20 -84 -21q-31 0 -63.5 17.5t-32.5 40.5q0 10 10 16l150 61q33 16 47 27 q18 12 9 19.5t-23 -3.5q-41 -27 -103.5 -53.5t-97.5 -26.5q-37 0 -67.5 21.5t-30.5 60.5q0 29 29.5 67t64.5 52q8 2 20.5 -15.5t12.5 -27.5t-17.5 -24.5t-29.5 -20.5q-16 -8 -17 4q0 4 6.5 8l14.5 8.5t12 8.5t0 10t-10 4q-8 -2 -23.5 -17.5t-15.5 -29.5q0 -6 6 -13t14 -5 q2 0 35 17t57 17q10 0 10.5 8.5t-3.5 12.5q-61 70 -62 172q0 78 52.5 191.5t56.5 183.5q0 4 -6.5 5t-12.5 -2t-6 -7q0 -18 -6 -31q-6 -8 -38 -2t-42 12q-20 8 -31 43q-18 -4 -30 8q-6 6 -10.5 27.5t-5.5 53.5t0 60l2 57q1 30 1 38q106 63 342 63q185 0 291 -63zM823 1464 q-35 -4 -96 -37q0 -10 -2 -54q-1 -29 -1 -52v-21q1 -29 9 -43q66 45 150 52q59 6 57 20q-4 12 -43 12q-55 0 -51 13q2 8 41 16q20 4 20 10q-2 12 -33 13q-43 -4 -40 4q2 4 34 14q20 6 11 14q-8 6 -29 5q-31 -2 -29 6q0 6 13 10q31 12 12 18q-4 1 -10 1t-13 -1zM1290 -68 q-12 -45 -16 -86q-25 0 -25 39q0 47 41 47zM844 461l-17 -8q-4 -18 12.5 -32.5t39.5 -12.5l26 8q-33 2 -48 11t-13 34zM961 367l-17 -9q-4 -18 12 -32q14 -13 34 -13h5l27 9q-33 2 -48 11t-13 34zM743 561l-16 -8q-2 -18 11.5 -31.5t29.5 -15.5l27 8q-25 4 -37.5 13 t-14.5 34zM762 1237q0 -45 22 -57q121 55 283 55q106 0 213 -47q10 14 10 49q-63 55 -233 55q-84 0 -177 -15t-118 -40zM866.5 1264q22.5 0 22.5 -23q0 -25 -21 -24q-25 0 -24 22q0 25 22.5 25zM838 1210l-15 -8q-18 0 -18 25q0 10 4 14l20 10q-6 -10 -6 -18q1 -19 15 -23z M895 1272l14 4q18 0 19 -25q0 -10 -6 -16l-19 -4q6 6 6 16q0 15 -14 25z" />
<glyph unicode="d" horiz-adv-x="2048" d="M1139 1276l14 -4q-14 -10 -14 -25q0 -10 6 -16l-19 4q-6 6 -6 16q1 25 19 25zM1225 1202l-15 8q14 4 15 23q0 8 -6 18l20 -10q4 -4 4 -14q0 -25 -18 -25zM1181.5 1264q22.5 0 22.5 -25q0 -23 -24 -22q-20 0 -21 24q0 23 22.5 23zM1286 1237q-25 25 -118 40t-177 15 q-170 0 -233 -55q0 -35 10 -49q106 47 213 47q162 0 283 -55q22 12 22 57zM1321 553l-16 8q-2 -25 -14.5 -34t-37.5 -13l27 -8q16 2 29.5 15.5t11.5 31.5zM1104 358l-17 9q2 -25 -13 -34t-48 -11l27 -9q23 -2 39 12.5t12 32.5zM1221 453l-17 8q2 -25 -13 -34t-48 -11l26 -8 q23 -2 39.5 12.5t12.5 32.5zM758 -68q41 0 41 -47q0 -39 -25 -39q-4 41 -16 86zM1225 1464q-27 4 -27 -6q-2 -6 16 -12q23 -8 9 -14q-6 -4 -25 -2q-27 2 -31 -9q-2 -4 9 -8q2 -2 4 -2q33 -10 34 -14q2 -8 -40 -4q-27 2 -33 -9q-4 -6 10 -12q4 0 10 -2q39 -8 41 -16 q4 -12 -51 -13q-39 0 -43 -12q-2 -14 57 -20q84 -6 150 -52q8 14 9 43v21q0 23 -1 52q-2 44 -2 54q-61 33 -96 37zM715 1444q106 63 291 63q236 0 342 -63q0 -8 1 -38l2 -57q1 -28 0 -60t-5.5 -53.5t-10.5 -27.5q-12 -12 -30 -8q-10 -35 -31 -43q-10 -6 -42 -12t-38 2 q-6 12 -6 31q0 4 -6 7t-12.5 2t-6.5 -5q4 -70 56.5 -183.5t52.5 -191.5q0 -102 -62 -172q-4 -4 -4 -12.5t11 -8.5q25 0 57.5 -17t34.5 -17q8 -2 14 5t6 13q0 14 -15.5 29.5t-23.5 17.5q-6 2 -10 -4t0 -10t12 -8.5l14.5 -8.5t6.5 -8q0 -12 -17 -4q-12 6 -29.5 20.5 t-17.5 24.5t12.5 27.5t20.5 15.5q35 -14 64.5 -52t29.5 -67q0 -39 -30.5 -60.5t-67.5 -21.5q-35 0 -97.5 27t-103.5 53q-14 10 -23.5 3t9.5 -19q59 -41 197 -88q10 -6 10 -16q0 -23 -33 -40.5t-63 -17.5q-47 0 -84 21q-141 84 -199 98q-6 2 -10 -1t-3 -8t7 -7 q72 -29 188 -99q47 -27 105 -26q0 -35 -41 -52.5t-82 -17.5q-35 0 -72 22.5t-88 65.5t-82 64q-27 20 -31 2q0 -4 2 -7.5t9.5 -6.5t11.5 -7q43 -31 53 -63q3 -9 3 -21q0 -29 -19 -74q21 -56 20 -111q0 -49 -16 -97q20 -39 20 -105q0 -20 -2 -43q-8 -96 -69 -96q-12 0 -17 6 q14 0 26.5 16.5t12.5 38.5q0 72 -61 72q-84 432 -84 686q0 121 52 310.5t52 213.5q-20 4 -24 11q-10 14 -15 49q-27 8 -26 100q0 14 2 54t2 65z" />
<glyph unicode="e" horiz-adv-x="2048" d="M715 -12q0 25 -2 64.5t-2 53.5q0 92 26 101q4 35 15 49q4 6 24 10q0 25 -52 214.5t-52 310.5q0 254 84 686q61 0 61 71q0 23 -12 39.5t-27 16.5q4 6 17 6q61 0 69 -97q2 -23 2 -42q0 -66 -20 -105q16 -48 16 -98q0 -55 -20 -111q19 -44 19 -74q0 -11 -3 -20 q-10 -33 -53 -64q-4 -4 -11.5 -7t-9.5 -6t-2 -7q4 -18 31 2q31 20 82 63t88 66t72 23q41 0 82 -17.5t41 -52.5q-57 0 -105 -27q-117 -70 -188 -98q-6 -2 -7 -7t3 -8t10 -1q57 14 199 98q37 20 84 20q31 0 63.5 -17t32.5 -40q0 -12 -10 -16l-150 -62q-33 -16 -47 -26 q-18 -12 -9 -19.5t23 2.5q41 27 103.5 53.5t97.5 26.5q37 0 67.5 -21.5t30.5 -60.5q0 -29 -29.5 -66.5t-64.5 -52.5q-8 -2 -20.5 15.5t-12.5 28t17.5 24.5t29.5 20q16 8 17 -4q0 -4 -6.5 -8t-14.5 -8t-12 -8t0 -10.5t10 -4.5q8 2 23.5 17.5t15.5 30.5q0 6 -6 13t-14 5 q-2 0 -35 -17.5t-57 -17.5q-10 0 -10.5 -8t3.5 -12q61 -72 62 -172q0 -78 -52.5 -192t-56.5 -183q0 -4 6.5 -5t12.5 2t6 7q0 18 6 31q6 8 38 2t42 -13q20 -8 31 -43q18 4 30 -8q6 -6 10.5 -27.5t5.5 -53t0 -59.5l-2 -57q-1 -30 -1 -38q-106 -63 -342 -64q-185 1 -291 64z M1225 -33q35 4 96 37q0 10 2 54q1 29 1 52v21q-1 29 -9 43q-66 -45 -150 -51q-59 -6 -57 -21q4 -12 43 -12q55 0 51 -12q-2 -8 -41 -17q-20 -4 -20 -10q2 -12 33 -12q43 4 40 -4q-2 -4 -34 -15q-20 -6 -11 -14q8 -6 29 -4q31 2 29 -6q0 -6 -13 -10q-31 -12 -12 -19 q4 -1 10 -1t13 1zM758 1499q12 45 16 86q25 0 25 -39q0 -47 -41 -47zM1204 971l17 8q4 18 -12.5 32.5t-39.5 12.5l-26 -8q33 -2 48 -11t13 -34zM1087 1065l17 8q4 18 -12 33q-14 13 -34 12h-5l-27 -8q33 -2 48 -11t13 -34zM1305 870l16 9q2 18 -11.5 31.5t-29.5 15.5l-27 -8 q25 -4 37.5 -13.5t14.5 -34.5zM1286 195q0 47 -22 57q-121 -55 -283 -55q-106 0 -213 47q-10 -14 -10 -49q63 -55 233 -56q84 0 177 15.5t118 40.5zM1181.5 168q-22.5 0 -22.5 22q0 25 21 25q25 0 24 -22q0 -25 -22.5 -25zM1210 221l15 8q18 0 18 -24q0 -10 -4 -15l-20 -10 q6 8 6 19q-1 18 -15 22zM1153 160l-14 -4q-18 0 -19 24q0 10 6 17l19 4q-6 -6 -6 -17q0 -14 14 -24z" />
<glyph unicode="f" horiz-adv-x="2048" d="M909 156l-14 4q14 10 14 24q0 10 -6 17l19 -4q6 -6 6 -17q-1 -24 -19 -24zM823 229l15 -8q-14 -4 -15 -22q0 -10 6 -19l-20 10q-4 4 -4 15q0 24 18 24zM866.5 168q-22.5 0 -22.5 25q0 23 24 22q20 0 21 -25q0 -22 -22.5 -22zM762 195q25 -25 118 -40.5t177 -15.5 q170 0 233 56q0 35 -10 49q-106 -47 -213 -47q-162 0 -283 55q-22 -10 -22 -57zM727 879l16 -9q2 25 14.5 34t37.5 14l-27 8q-16 -2 -29.5 -15.5t-11.5 -31.5zM944 1073l17 -8q-2 25 13 34t48 11l-27 8q-23 2 -39 -12.5t-12 -32.5zM827 979l17 -8q-2 25 13 34t48 11l-26 8 q-23 2 -39.5 -12.5t-12.5 -32.5zM1290 1499q-41 0 -41 47q0 39 25 39q4 -41 16 -86zM823 -33q27 -4 27 6q2 6 -16 13q-23 8 -9 14q6 4 25 2q27 -2 31 8q2 4 -9 8q-2 2 -4 2q-33 10 -34 15q-2 8 40 4q27 -2 33 8q4 6 -10 12q-4 0 -10 2q-39 8 -41 17q-4 12 51 12q39 0 43 12 q2 14 -57 21q-84 6 -150 51q-8 -14 -9 -43v-21q0 -23 1 -52q2 -44 2 -54q61 -33 96 -37zM1333 -12q-106 -63 -291 -64q-236 0 -342 64q0 8 -1 38l-2 57q-1 28 0 59.5t5.5 53t10.5 27.5q12 12 30 8q10 35 31 43q10 6 42 12.5t38 -1.5q6 -12 6 -31q0 -4 6 -7t12.5 -2t6.5 5 q-4 70 -56.5 183.5t-52.5 191.5q0 100 62 172q4 4 4 12t-11 8q-25 0 -57.5 17.5t-34.5 17.5q-8 2 -14 -5t-6 -13q0 -14 15.5 -30t23.5 -18q6 -2 10 4.5t0 10.5t-12 8t-14.5 8t-6.5 8q0 12 17 4q12 -6 29.5 -20t17.5 -24.5t-12.5 -28t-20.5 -15.5q-35 14 -64.5 52t-29.5 67 q0 39 30.5 60.5t67.5 21.5q35 0 97.5 -26.5t103.5 -53.5q14 -10 23.5 -3t-9.5 20q-59 41 -197 88q-10 4 -10 16q0 23 33 40t63 17q47 0 84 -20q141 -84 199 -98q6 -2 10 1t3 8t-7 7q-72 29 -188 98q-47 27 -105 27q0 35 41 52.5t82 17.5q35 0 72 -23t88 -66t82 -63 q27 -20 31 -2q0 4 -2 7t-9.5 6t-11.5 7q-43 31 -53 64q-3 9 -3 20q0 29 19 74q-21 56 -20 111q0 49 16 98q-20 39 -20 105q0 20 2 42q8 96 69 97q12 0 17 -6q-14 0 -26.5 -16.5t-12.5 -39.5q0 -72 61 -71q84 -432 84 -686q0 -121 -52 -310.5t-52 -214.5q20 -4 24 -10 q10 -14 15 -49q27 -8 26 -101q0 -14 -2 -53.5t-2 -64.5z" />
<glyph unicode="g" d="M778 436l-416 -301l156 490l-416 303h516l160 491l160 -491h516l-416 -303l156 -490z" />
<glyph unicode="h" d="M778 1419l160 -491h516l-416 -303l156 -492l-416 303l-416 -303l156 492l-416 303h516zM256 879l502 -162l-92 162h-410zM459 260l309 428l-182 -39zM1110 264l-313 426l-19 -186zM1305 883l-502 -166l172 -76zM778 1260l2 -529l125 139z" />
<glyph unicode="i" d="M778 492l332 -242l-125 393l330 240h-410l-127 387l-127 -387h-409l329 -240l-125 -393zM778 1157l103 -309h327l-264 -191l103 -319l-269 197l-268 -197l102 319l-264 191h328zM778 436l-416 -303l156 492l-416 303h516l160 491l160 -491h516l-416 -303l156 -492z" />
<glyph unicode="j" d="M825 643l-47 -151l-47 151h-160l129 88l-49 152l127 -97l127 97l-49 -152l129 -88h-160zM778 492l332 -242l-125 393l330 240h-410l-127 387l-127 -387h-409l329 -240l-125 -393zM778 436l-416 -303l156 492l-416 303h516l160 491l160 -491h516l-416 -303l156 -492z" />
<glyph unicode="k" d="M778 492l47 151h160l-129 88l49 152l-127 -97l-127 97l49 -152l-129 -88h160zM778 1419l160 -491h516l-416 -303l156 -492l-416 303l-416 -303l156 492l-416 303h516zM557 596l-111 -346l293 213zM891 928l-113 342l-112 -342h225zM242 883l290 -213l70 213h-360z M1110 250l-111 346l-182 -133zM1024 670l291 213h-361z" />
<glyph unicode="l" d="M778 1419l142 -434l131 98l-52 -155h455l-367 -269l132 -92h-162l137 -434l-363 264l-53 -153l-53 153l-363 -264l138 434h-162l131 92l-367 269h455l-51 155l131 -98zM670 567h-123l-101 -317l265 192zM612 762l-41 121h-329l266 -195zM778 883l103 75l-103 312 l-102 -312zM1010 567h-123l-41 -125l264 -192zM985 883l-41 -121l105 -74l266 195h-330z" />
<glyph unicode="m" d="M778 1419l160 -491h516l-416 -303l156 -492l-416 303l-416 -303l156 492l-416 303h516zM778 973l-63 -187h-178l149 -106l-57 -178l149 110l150 -110l-58 178l150 106h-178z" />
<glyph unicode="n" d="M395 717l-293 211h377l-119 368l306 -221l112 344l113 -344l305 221l-119 -368h377l-293 -211l293 -211h-377l119 -369l-305 221l-113 -344l-112 344l-306 -221l119 369h-377zM256 879l502 -162l-92 162h-410zM459 260l309 428l-182 -39zM1110 264l-313 426l-19 -186z M1305 883l-502 -166l172 -76zM778 1260l2 -529l125 139z" />
<glyph unicode="o" d="M395 717l-293 211h377l-119 368l306 -221l112 344l113 -344l305 221l-119 -368h377l-293 -211l293 -211h-377l119 -369l-305 221l-113 -344l-112 344l-306 -221l119 369h-377zM778 492l332 -242l-125 393l330 240h-410l-127 387l-127 -387h-409l329 -240l-125 -393z M1047 338l-269 197l-268 -197l102 319l-264 191h328l102 309l103 -309h327l-264 -191z" />
<glyph unicode="p" d="M778 492l332 -242l-125 393l330 240h-410l-127 387l-127 -387h-409l329 -240l-125 -393zM825 643l-47 -151l-47 151h-160l129 88l-49 152l127 -97l127 97l-49 -152l129 -88h-160zM395 717l-293 211h377l-119 368l306 -221l112 344l113 -344l305 221l-119 -368h377 l-293 -211l293 -211h-377l119 -369l-305 221l-113 -344l-112 344l-306 -221l119 369h-377z" />
<glyph unicode="q" d="M778 492l47 151h160l-129 88l49 152l-127 -97l-127 97l49 -152l-129 -88h160zM557 596l-111 -346l293 213zM891 928l-113 342l-112 -342h225zM242 883l290 -213l70 213h-360zM1110 250l-111 346l-182 -133zM1024 670l291 213h-361zM778 1419l111 -342l305 223l-119 -372 h379l-291 -211l291 -211h-379l119 -373l-305 221l-111 -340l-110 340l-306 -221l117 373h-377l289 211l-289 211h377l-117 372l306 -223zM1110 1184l-207 -152l35 -104h90zM446 1184l82 -256h90l35 104zM518 625l-88 63l-188 -137h252zM1315 551l-189 137l-88 -63l23 -74 h254zM778 164l72 219l-72 53l-73 -53z" />
<glyph unicode="r" d="M885 854l-107 326l-106 -326h-334l276 -192l-108 -322l272 203l273 -203l-109 322l277 192h-334zM395 717l-293 211h377l-119 368l306 -221l112 344l113 -344l305 221l-119 -368h377l-293 -211l293 -211h-377l119 -369l-305 221l-113 -344l-112 344l-306 -221l119 369 h-377z" />
<glyph unicode="s" horiz-adv-x="1433" d="M1024 655q-18 -49 -18 -122.5t18 -122.5q-49 18 -123 18t-123 -18q18 68 19 104q0 53 -41 100q-49 -70 -49 -155v-160h-193q-113 0 -190.5 -78t-77.5 -190v-31h-29v31q0 125 86 211t211 86h164v131q0 102 57 178l-47 51q-74 -92 -74 -215v-96h-100q-145 0 -245.5 -100.5 t-100.5 -245.5v-31h-168v31q0 197 130 342t321 168q18 141 108 254q-35 18 -61 18q-143 0 -144 -119q-25 8 -39 39t-14 64q0 47 36 88t99 59q-135 72 -135 189q117 0 188 -136q18 63 59.5 99.5t88.5 36.5q33 0 63.5 -14.5t38.5 -39.5q-119 0 -118 -143q0 -31 16 -64 q109 90 256 109q23 193 168 323t342 130h31v-168h-31q-145 0 -245.5 -100.5t-100.5 -245.5v-101h-96q-121 0 -216 -74l50 -49q80 59 180 60h131v164q0 125 86 211t211 86h31v-29h-31q-113 0 -190.5 -78t-77.5 -190v-193h-160q-88 0 -158 -51q49 -43 103 -43q45 -1 104 22z M0 1434h1114q-119 -63 -201 -168h-745v-746q-104 -82 -168 -201v1115zM217 1217h662l-19 -29h-614v-615l-29 -18v662z" />
<glyph unicode="t" horiz-adv-x="1433" d="M709 725h32q229 0 408.5 138t236.5 354h48v-29h-27q-68 -217 -251 -354.5t-415 -137.5h-4v-4q0 -231 -137 -414.5t-354 -250.5v-27h-29v47q215 57 353.5 236.5t138.5 408.5v33zM1190 1434h244v-168h-86q-41 -213 -211 -352.5t-396 -139.5q-41 0 -88 6q6 -47 6 -88 q0 -225 -139 -395t-352 -211v-86h-168v244q14 -2 41 -2q188 0 319.5 131t131.5 319q0 90 -21.5 151.5t-64.5 61.5q-47 0 -78 -78q-26 28 -27 67q0 10 2 20q8 52 47 81q-86 74 -86 174q100 0 174 -86q29 39 81 47q10 2 20 2q39 0 67 -26q-78 -31 -78 -78q0 -43 61.5 -64.5 t151.5 -21.5q188 0 319.5 131t131.5 320q0 27 -2 41zM168 989q0 -98 57.5 -174t149.5 -96q3 -23 3 -46q0 -116 -88 -208q-105 -111 -249 -111q-27 0 -41 2v240q51 -43 133 -46h14q73 0 127 30q-123 51 -198.5 161.5t-75.5 247.5q0 164 106 291h-106v154h154v-107 q127 106 290 107q137 0 248 -76t162 -199q30 54 30 128v13q-3 82 -46 134h239q2 -14 2 -41q0 -143 -110 -249q-93 -88 -208 -89q-22 0 -46 4q-20 92 -96 149.5t-175 57.5q-115 0 -195.5 -81t-80.5 -196z" />
<glyph unicode="u" horiz-adv-x="1433" d="M813 1130q0 -63 -43 -98t-100 -35q-90 0 -153.5 64.5t-63.5 155.5q0 96 64.5 156.5t193.5 60.5h723v-168h-136q-156 0 -343 22.5t-255 22.5q-121 0 -120 -90q0 -80 69 -80q-2 11 -2 20q0 24 15 43q20 27 61 27q57 0 82 -60q8 45 53 46h576v-29h-533q14 -29 0 -53.5 t-43 -24.5q-31 0 -45 25v-5zM303 621h-4q25 -18 25 -46q0 -29 -25 -43t-53 0v-532h-29v575q0 43 43 52q-57 23 -57 84q0 41 26 61q19 15 44 15q10 0 20 -3q0 70 -80 70q-90 0 -90 -121q0 -68 22.5 -255t22.5 -343v-135h-168v723q0 129 60.5 193.5t156.5 64.5 q90 0 154.5 -63.5t64.5 -153.5q0 -57 -35 -100t-98 -43zM20.5 1413.5q20.5 20.5 57.5 20.5q96 0 164 -140q70 -147 139 -217q104 -104 299 -172q-45 -45 -66 -51q49 -47 66 -100q-53 16 -100 65q-6 -20 -52 -65q-68 195 -172 299q-70 70 -217 139q-139 68 -139 164 q0 37 20.5 57.5zM289 1366q0 31 18.5 49.5t47 18.5t47 -18.5t18.5 -49.5q0 -18 -9.5 -53t-11 -51t-1.5 -35q0 -43 10 -101q-2 4 -17 23l-19 25q-5 6 -17.5 23t-17.5 26.5t-15.5 26t-14.5 28.5l-9 28q-5 15 -7 30.5t-2 29.5zM68 1145q14 0 29.5 -2t30.5 -7l28 -10 q12 -4 28.5 -14t25.5 -15t26.5 -17.5t23.5 -17.5l24.5 -19.5t22.5 -16.5q-57 10 -100 10q-19 0 -35 -2t-51 -11t-53 -9q-31 0 -49.5 18.5t-18.5 47t18.5 47t49.5 18.5z" />
<glyph unicode="v" horiz-adv-x="1433" d="M1386 1290q-49 -37 -135 -37q-72 0 -112 17q6 -18 6 -41q0 -51 -34 -90t-91 -39q-37 0 -63.5 22.5t-26.5 59.5q0 35 19.5 55t51.5 20q31 0 51.5 -19t24.5 -19q12 0 13 22q0 41 -31 60.5t-74 19.5q-49 0 -81 -34t-38 -87q-14 22 -14 54q0 11 2 23q6 48 39 64 q-106 -12 -170 -71.5t-64 -141t25 -147.5q-57 2 -96 54q-35 47 -35 101v11q-41 -31 -93 -31q-14 0 -28 2q20 86 82 117q-51 41 -74 158q25 0 70 -27t88 -27q53 0 145.5 47.5t165.5 47.5q78 0 197 -62q94 -49 159 -48q18 0 33 3q-1 8 0 15q0 27 12 49q15 27 54 26 q70 0 70 -74q0 -78 -71 -117.5t-155 -39.5q-2 -76 -54 -119t-124 -43q-27 0 -53 6q0 -115 -87 -192.5t-216 -77.5q0 -129 -78 -216t-193 -87q6 -27 7 -54q0 -72 -43 -124t-119 -54q0 -84 -40 -154.5t-118 -70.5q-74 0 -74 70q0 39 27 54q21 12 48 12q7 0 15 -1q3 16 4 33 q0 66 -49 160q-61 119 -61 196q0 74 47 166t47 146q0 43 -26.5 88t-26.5 69q117 -23 158 -73q31 61 116 81q2 -15 3 -28q0 -52 -31 -92h11q53 0 100 -35q52 -39 55 -96q-66 25 -148 24.5t-141.5 -64t-71.5 -169.5q16 33 65 39q12 2 23 1q32 0 53 -14q-53 -6 -86.5 -37.5 t-33.5 -80.5q0 -43 19.5 -74t60.5 -31q23 0 22 12q0 4 -19.5 24.5t-19.5 51.5q0 33 20.5 52.5t55.5 19.5q37 0 59.5 -26.5t22.5 -63.5q0 -57 -40 -91t-91 -34q-20 0 -39 6q14 -47 14 -113q0 -90 -35 -135q72 45 72 182v19h21q68 0 107.5 44t39.5 116q0 29 -10 73q8 -2 26 -2 q104 0 175 82t71 193q0 25 -2 37q12 -2 37 -3q111 0 192.5 71t81.5 175q0 18 -2 27q45 -10 74 -10q72 0 116 39.5t44 107.5v21h18q137 -1 182 71zM582 852q12 -33 12 -104q0 -94 -52.5 -158t-146.5 -64q-35 0 -59.5 17.5t-33.5 37t-25.5 37t-36.5 17.5q-37 0 -68 -6 q20 47 76 47q61 0 92 -25q6 27 -12 56q12 6 20 6q25 0 37 -18.5t13 -42t12.5 -42t35.5 -18.5q43 0 62.5 48t19.5 103q0 121 -105.5 221.5t-232.5 100.5q-55 0 -145 -29q16 66 64.5 99.5t99.5 33.5q-174 96 -209 265q168 -35 264 -209q0 51 34 99t99 65q-29 -90 -28 -146 q0 -127 100 -232.5t221 -105.5q55 0 103.5 19.5t48.5 62.5q0 25 -18.5 36t-42 12t-42 13.5t-18.5 36.5q0 8 6 21q29 -18 55 -12q-25 31 -24 92q0 55 47 76q-6 -31 -6 -68q0 -20 17.5 -36.5t36.5 -26t36.5 -34t17.5 -59.5q0 -94 -63.5 -146t-157.5 -52q-71 0 -104 12z" />
<glyph unicode="w" horiz-adv-x="1433" d="M0 0v1165q96 -217 265 -362.5t392 -188.5q-399 -283 -436 -614h-221zM745 688q-311 33 -512.5 242t-232.5 504q311 -33 512.5 -242t232.5 -504zM51 963v-912h125q53 281 367 539q-308 99 -492 373zM682 752q-45 236 -209 404.5t-410 213.5q45 -236 209 -404.5t410 -213.5 zM92 92v748q152 -174 371 -265q-264 -229 -320 -483h-51zM641 793q-207 49 -348 193t-189 343q207 -49 348.5 -193t188.5 -343zM123 762v-623q63 221 283 426q-160 76 -283 197zM141 1292q51 -164 173 -286.5t290 -176.5q-51 164 -173 287t-290 176zM199 551q-39 43 -40 106 q0 6 1 13q75 -29 75 -75q0 -9 -4 -20q12 16 33 17q14 0 25.5 -11.5t11.5 -27.5t-11 -26.5t-26 -10.5q-18 0 -31 12q9 -16 9 -34q0 -14 -5 -29q-11 -35 -21.5 -52.5t-32 -43t-25.5 -33.5q-5 20 -5 52q0 24 3 55q6 73 43 108zM522 926l-12 -13l-47 48q-16 -25 -31 -25 q2 18 -4 41.5t-12 30.5l-19 18q-27 -18 -51 6.5t-6 50.5l-18 19q-6 6 -30 12t-42 4q0 14 24 31l-47 47l13 12l47 -47q16 25 30 25q-2 -18 4.5 -42t12.5 -30l18 -18q29 16 51.5 -6.5t6.5 -51.5l18 -18q6 -6 29.5 -12.5t42.5 -3.5q0 -14 -25 -31zM268 1434h1166v-222 q-332 -37 -615 -436q-43 223 -188.5 392.5t-362.5 265.5zM1382 1382h-911q274 -184 373 -491q258 313 538 366v125zM594 1341h747v-51q-254 -55 -483 -319q-90 218 -264 370zM1294 1311h-622q121 -123 196 -283q205 220 426 283zM883 1235q35 37 107 43q31 3 56 3 q32 0 52 -5q-8 -4 -34 -25.5t-43 -32t-52 -21.5q-15 -5 -30 -5q-18 0 -34 8q12 -12 13 -31q0 -14 -10.5 -25t-27 -11t-27.5 11t-11 25q0 20 16 33q-10 -3 -19 -3q-46 0 -75 75h12q64 0 107 -39z" />
<glyph unicode="x" horiz-adv-x="1435" d="M0 995q0 180 129 310.5t311 130.5q125 0 229.5 -64.5t159.5 -171.5h361l110 129l136 -141v-385l-136 -141l-110 129h-361q-63 -121 -184 -185v-360l129 -111l-141 -135h-385l-142 135l130 111v360q-106 55 -171 159.5t-65 229.5zM268 627v-396l-112 -98l108 -100h350 l111 100l-113 98v396q133 63 197 196h395l99 -112l100 110v350l-100 109l-99 -113h-395q-49 106 -149.5 171t-219.5 65q-168 0 -287.5 -120t-119.5 -288q0 -119 64.5 -219t170.5 -149zM100 995q0 141 99.5 240.5t240.5 99.5q115 0 207 -69.5t123 -178.5h477l70 82l29 -30 v-287l-29 -31l-70 82h-477q-25 -86 -88.5 -149.5t-149.5 -87.5v-478l82 -69l-30 -29h-287l-31 29l82 69v478q-109 31 -178.5 122.5t-69.5 206.5zM641 795l-94 194l137 137l-199 -30l-94 182l-31 -203l-202 -31l182 -94l-31 -198l137 137z" />
<glyph unicode="y" horiz-adv-x="1433" d="M979 934q82 0 145 -53q2 7 2 14q0 35 -41 70q35 27 70 26q23 0 33 -10q27 -27 51.5 -27t38.5 15.5t14 36.5q0 25 -19.5 46t-51.5 21q-63 0 -144 -55q9 23 9 47q0 8 -1 16q-4 33 -26 41q-16 -47 -47 -86t-60 -49q-58 -25 -90 -25q-17 0 -28 7q2 6 18 26.5t16 44.5 q0 23 -15 39.5t-40 16.5q-33 0 -52.5 -28t-19.5 -60q0 -47 29 -72t70 -25q14 0 57 11.5t82 11.5zM354 844l-39 -43q127 -53 275 -53h801v477h-316q-127 0 -185.5 20.5t-139.5 102.5l-17 16l-117 -117q16 -25 29 -53l86 86q111 -111 285 -111h319v-366h-743q-134 0 -238 41z M186 879l41 39q-102 86 -110 215q0 76 54 130t130 54q160 -12 245 -152.5t85 -322.5l55 2q0 90 -23.5 179t-68.5 169t-122 130t-173 50q-98 0 -168 -69.5t-70 -167.5q0 -152 125 -256zM0 1135q0 125 87 212t212 87q166 0 291 -148l143 144l68 -68q63 -63 120.5 -78.5 t184.5 -15.5h328v-563h-705v-705h-563v328q0 127 -15.5 184t-78.5 121l-68 67l143 144q-147 125 -147 291zM508 1139l-438 -439l16 -16q82 -82 102.5 -140.5t20.5 -185.5v-315h477v662h-55v-607h-367v320q0 174 -110 284l383 383zM500 455q0 39 11 82t11 57q0 41 -24.5 69.5 t-71.5 28.5q-33 0 -60.5 -19.5t-27.5 -51.5q0 -25 16.5 -40.5t38.5 -15.5q18 0 29.5 6.5t22 15.5t20.5 13q7 -11 7 -28q0 -33 -26 -91q-10 -29 -49 -59.5t-86 -46.5q8 -23 41 -27q8 -1 17 -1q24 0 47 9q-55 -80 -56 -143q0 -33 21.5 -52.5t46.5 -19.5q20 0 35.5 14.5 t15.5 39t-26 51.5q-10 10 -11 33q0 35 27 69q34 -41 69 -41q7 0 15 2q-53 64 -53 146z" />
<glyph unicode="z" horiz-adv-x="1433" d="M330 1413q25 0 43 -15.5t18 -39.5q0 -47 -47 -58v-83q41 0 121 22q-18 -74 -21 -121h791q55 0 104.5 35t69.5 90q25 -63 25 -139t-25 -137q-20 53 -69.5 88t-104.5 35h-791q2 -49 21 -121q-86 20 -121 22v-792q0 -55 35 -104.5t88 -69.5q-61 -25 -137 -25t-140 25 q53 20 89 70t36 104v792q-37 -2 -118 -22q20 82 22 121h-88q-6 -47 -55 -48q-25 0 -40.5 17.5t-15.5 44t15.5 45t40.5 18.5q47 0 55 -49h88q-2 35 -22 121q82 -20 118 -22v83q-49 10 -49 58q0 25 18.5 40t45.5 15zM766 1135v16q78 0 124 41t46 108q0 76 -51 134h207 q-10 -133 -104.5 -216t-221.5 -83zM283 668h16q0 -127 -83 -221.5t-216 -104.5v207q57 -51 133 -51q68 0 109 46t41 124zM766 1059v14q127 0 221 -83t105 -216h-207q51 57 51 133q0 68 -47 110t-123 42zM360 668h15q0 -76 42 -123t109 -47q76 0 133 51v-207 q-133 10 -216 104.5t-83 221.5zM520 780q57 0 95 34t38 101q0 43 -36.5 77t-75.5 34v16q76 0 126 -48t50 -126q0 -66 -42 -107.5t-110 -41.5q-78 0 -125 50t-47 126h17q0 -39 33.5 -77t76.5 -38zM283 436h16q0 -244 -193 -362q-68 55 -92 151q22 -4 43 -4q74 0 140 51 q84 66 86 164zM997 1135v16q98 2 164 86q51 66 51 140q0 21 -4 42q92 -25 152 -92q-119 -192 -363 -192zM360 436h15q2 -98 87 -164q66 -51 142 -51q21 0 43 4q-27 -92 -92 -151q-195 116 -195 362zM997 1059v14q246 0 363 -194q-59 -66 -152 -93q4 22 4 44q0 76 -51 142 q-66 85 -164 87zM256 922h18v-88q0 -72 -33.5 -115t-99.5 -43q-47 0 -79.5 29.5t-32.5 82.5q0 41 27.5 70t72.5 29q37 0 58.5 -21.5t21.5 -54.5t-19.5 -51.5t-54.5 -18.5q-10 0 -14 7.5t0 14.5t14 7q43 0 43 43q0 45 -51 45q-31 0 -49.5 -19.5t-18.5 -50.5q0 -82 82 -81 q115 0 115 127v88zM512 1159v19h88q127 0 127 114q0 82 -82 82q-31 0 -50.5 -18.5t-19.5 -48.5q0 -51 46 -52q43 0 43 43q0 10 7 14.5t14 0.5t7 -15q0 -33 -19.5 -53t-49.5 -20q-33 0 -54.5 21.5t-21.5 58.5q0 45 28.5 72.5t69.5 27.5q53 0 83 -33t30 -80q0 -66 -43 -99.5 t-115 -33.5h-88zM332 1139q-16 0 -26.5 -10.5t-10.5 -26.5q0 -35 37 -35q35 0 35 35q0 37 -35 37z" />
<glyph unicode="&#xaa;" horiz-adv-x="2048" d="M244 938q25 0 64.5 2t53.5 2q92 0 101 -27q35 -4 49 -14q6 -4 10 -24q25 0 214.5 52t310.5 52q254 0 686 -84q0 -61 71 -61q23 0 39.5 12t16.5 26q6 -2 6 -16q0 -61 -97 -70q-23 -2 -42 -1q-66 0 -105 20q-48 -16 -98 -17q-55 0 -111 21q-44 -19 -74 -19q-11 0 -20 3 q-33 10 -64 53q-4 4 -7 11t-6 9t-7 2q-18 -4 2 -30q20 -31 63 -82t66 -88t23 -72q0 -41 -17.5 -82t-52.5 -41q0 57 -27 105q-70 117 -98 188q-2 6 -7 7t-8 -3t-1 -10q14 -57 98 -199q20 -37 20 -84q0 -31 -17 -63.5t-40 -32.5q-10 0 -16 10l-62 150q-16 33 -26 47 q-12 18 -19.5 9t2.5 -24q27 -41 53.5 -103t26.5 -97q0 -37 -21.5 -68t-60.5 -31q-29 0 -66.5 30t-52.5 65q-2 8 15.5 20t28 12t24.5 -17t20 -30q8 -16 -4 -16q-4 0 -8 6t-8 14.5t-8 12.5t-10.5 0t-4.5 -11q2 -8 17.5 -23t30.5 -15q6 0 13 6t5 14q0 2 -17.5 35t-17.5 57 q0 10 -8 10t-12 -4q-70 -61 -172 -61q-78 0 -192 52t-183 56q-4 0 -5 -6t2 -12t7 -6q18 0 31 -6q8 -6 2 -38t-13 -42q-8 -20 -43 -31q4 -18 -8 -31q-6 -6 -27.5 -10t-53 -5t-59.5 0l-57 2q-30 1 -38 1q-63 106 -64 342q1 185 64 291zM223 428q4 -35 37 -96q10 0 54 -2 q29 -1 52 -2q11 0 21 1q29 1 43 9q-45 66 -51 149q-6 59 -21 58q-12 -4 -12 -43q0 -55 -12 -51q-8 2 -17 41q-4 20 -10 20q-12 -2 -12 -33q4 -43 -4 -41q-4 2 -15 35q-6 20 -14 10q-6 -8 -4 -28q2 -31 -6 -29q-6 0 -10 12q-12 31 -19 13q-1 -4 -1 -10t1 -13zM1755 895 q45 -10 86 -16q0 -25 -39 -25q-47 0 -47 41zM1227 449l8 -17q18 -4 32.5 12.5t12.5 38.5l-8 27q-2 -33 -11 -48t-34 -13zM1321 565l8 -16q18 -4 32.5 12.5t12.5 38.5l-8 27q-2 -33 -11 -48.5t-34 -13.5zM1126 348l9 -16h4q15 0 27 11q13 13 16 30l-8 26q-4 -25 -13.5 -37 t-34.5 -14zM451 367q45 0 57 22q-55 119 -55 283q0 106 47 213q-14 10 -49 10q-55 -63 -56 -233q0 -84 15.5 -177t40.5 -118zM424 471.5q0 22.5 22 22.5q25 0 25 -21q0 -25 -22 -24q-25 0 -25 22.5zM477 442l8 -14q0 -18 -24 -18q-10 0 -15 4l-10 20q10 -6 19 -6q18 0 22 14 zM416 500l-4 14q0 18 24 18q10 0 17 -6l4 -18q-6 6 -17 6q-14 0 -24 -14z" />
<glyph unicode="&#xb2;" horiz-adv-x="819" d="M-20 0v29h860v-29h-860zM-20 78v168h860v-168h-860z" />
<glyph unicode="&#xb3;" horiz-adv-x="819" d="M-20 1266v168h860v-168h-860zM-20 1188v29h860v-29h-860z" />
<glyph unicode="&#xb9;" horiz-adv-x="204" d="M-20 1266v168h245v-168h-245zM-20 1188v29h245v-29h-245z" />
<glyph unicode="&#xba;" d="M395 717l-293 211h377l-119 368l306 -221l112 344l113 -344l305 221l-119 -368h377l-293 -211l293 -211h-377l119 -369l-305 221l-113 -344l-112 344l-306 -221l119 369h-377zM778 492l332 -242l-125 393l330 240h-410l-127 387l-127 -387h-409l329 -240l-125 -393z M1047 338l-269 197l-268 -197l102 319l-264 191h328l102 309l103 -309h327l-264 -191z" />
<glyph unicode="&#x152;" horiz-adv-x="3604" d="M2572 -80q-184 0 -291 64q0 25 -2 64.5t-2 53.5q0 92 27 101q2 31 14 53q0 2 16 8q-117 233 -116 529q0 141 29.5 364t74.5 408q0 2 2 12l3 15q1 5 5 12.5t11.5 10.5t17.5 3q78 0 78 -141q0 -74 -23 -123q18 -47 19 -113q0 -49 -19 -96q2 -12 2 -35q0 -53 -12 -74 q14 10 53 43t72 51.5t67 18.5q57 0 103.5 -24.5t46.5 -69.5q29 -4 61.5 -26.5t32.5 -51.5q0 -12 -4 -19q31 0 67.5 -24.5t36.5 -75.5q0 -37 -29.5 -78t-78.5 -63q8 -57 8 -96q0 -72 -42 -182.5t-48 -159.5q14 2 46 -0.5t42 -8.5q20 -8 31 -43q18 4 31 -8q16 -14 16 -110 q0 -29 -2 -74t-2 -51q-106 -64 -342 -64zM2310 168q-8 -18 -9 -68q0 -18 1.5 -53t1.5 -49q61 -33 96 -37q8 -1 13 -1q14 0 13 7q2 6 -16 13q-23 8 -8 14q6 4 24 2q27 -2 31 8q2 4 -8 8q-2 2 -4 2q-33 10 -35 15q-2 8 41 4q27 -2 33 8q4 6 -10 12q-4 0 -11 2q-39 8 -41 17 q-4 12 52 12q39 0 43 12q2 14 -58 21q-83 6 -149 51zM2719 156l-14 -4q-18 0 -19 24q0 10 7 17l18 4q-6 -6 -6 -17q0 -14 14 -24zM2777 217l14 8q18 0 18 -24q0 -10 -4 -15l-20 -10q6 8 6 19q0 18 -14 22zM2867 874l-17 -8q-2 25 -14 34t-37 13l27 9q16 -2 29.5 -16 t11.5 -32zM2650 1069l-17 -8q2 25 -13 34t-48 11l26 8q23 2 39.5 -12.5t12.5 -32.5zM2766 975l-16 -8q2 25 -13.5 34t-47.5 11l26 8q23 2 39 -12.5t12 -32.5zM2747.5 164q-22.5 0 -22.5 22q0 25 21 25q25 0 24 -23q0 -24 -22.5 -24zM2324 1495q41 0 41 47q0 39 -25 39 q-6 -41 -16 -86zM2852 190q0 47 -22 58q-119 -55 -283 -55q-104 0 -215 49q-8 -20 -8 -52q63 -55 233 -55q84 0 177 15t118 40zM2361 1602q-14 0 -17 -7q16 0 26.5 -15t10.5 -36q0 -68 -59 -67q-84 -432 -84 -691q0 -291 127 -534q92 -35 182 -35q113 0 178 25 q4 70 48.5 184.5t44.5 194.5q0 43 -2.5 65.5t-14.5 54t-37 56.5q-6 6 -6 14t10 8q27 0 55.5 14.5t30.5 14.5q8 2 14.5 -5t6.5 -14q0 -14 -12.5 -26t-20.5 -15q-6 -2 -10 4.5t0 10.5q2 2 7 5t9 4t7.5 4t3.5 5q0 12 -17 4q-41 -18 -41 -39q0 -10 12.5 -27.5t20.5 -15.5 q35 14 61.5 49t26.5 64q0 39 -30.5 60.5t-67.5 21.5q-35 0 -97.5 -26.5t-103.5 -53.5q-14 -10 -23.5 -3t9.5 19q59 41 196 89q10 4 11 16q0 23 -33 40t-64 17q-47 0 -84 -20q-141 -84 -198 -98q-6 -2 -10.5 1t-3.5 8t7 7q72 29 189 98q47 27 104 27q0 35 -41 52t-82 17 q-35 0 -71.5 -22.5t-87.5 -65.5t-82 -63q-27 -20 -31 -2q-2 8 14 16l9 4q49 27 49 119q0 20 -2 33q16 41 16 94q0 74 -18 115q23 45 22 129q0 117 -57 117zM1487 717l-232 -76l199 -143h-252l152 -211l-232 75l74 -233l-201 145v-233l-141 195l-76 -230l-76 230l-141 -195 v233l-201 -145l74 233l-231 -75l151 211h-252l199 143l-231 76l231 76l-199 143h252l-151 211l231 -76l-74 234l201 -146v234l141 -195l76 229l76 -229l141 195v-234l201 146l-74 -234l232 76l-152 -211h252l-199 -143zM1157 655l184 62l-186 61l162 113h-205l123 170 l-180 -60l57 187l-162 -117v184l-112 -155l-60 182l-61 -184l-111 153v-180l-160 115l58 -187l-185 62l123 -170h-198l155 -113l-184 -61l186 -62l-161 -112h204l-122 -170l180 59l-58 -186l162 116v-184l111 154l61 -180l62 184l110 -154v180l162 -114l-59 182l182 -55 l-121 168h199zM1235 717l-154 -51l123 -88h-157l100 -142l-148 47l48 -145l-132 92v-139l-86 121l-51 -152l-49 148l-88 -123v147l-133 -96l45 147l-141 -45l100 140h-162l129 88l-157 51l151 51l-123 88h162l-100 139l145 -51l-47 152l131 -90v137l86 -121l51 149l47 -149 l90 125v-146l134 97l-45 -148l141 45l-105 -139h166l-129 -88z" />
<glyph unicode="&#x153;" horiz-adv-x="3604" d="M2271 -12q0 25 -2 64.5t-2 53.5q0 92 26 101q4 35 15 49q4 6 24 10q0 25 -52 214.5t-52 310.5q0 254 84 686q61 0 61 71q0 23 -12 39.5t-27 16.5q4 6 17 6q61 0 69 -97q2 -23 2 -42q0 -66 -20 -105q16 -48 16 -98q0 -55 -20 -111q19 -44 19 -74q0 -11 -3 -20 q-10 -33 -53 -64q-4 -4 -11.5 -7t-9.5 -6t-2 -7q4 -18 31 2q31 20 82 63t88 66t72 23q41 0 82 -17.5t41 -52.5q-57 0 -105 -27q-117 -70 -188 -98q-6 -2 -7 -7t3 -8t10 -1q57 14 199 98q37 20 84 20q31 0 63.5 -17t32.5 -40q0 -12 -10 -16l-150 -62q-33 -16 -47 -26 q-18 -12 -9 -19.5t23 2.5q41 27 103.5 53.5t97.5 26.5q37 0 67.5 -21.5t30.5 -60.5q0 -29 -29.5 -66.5t-64.5 -52.5q-8 -2 -20.5 15.5t-12.5 28t17.5 24.5t29.5 20q16 8 17 -4q0 -4 -6.5 -8t-14.5 -8t-12 -8t0 -10.5t10 -4.5q8 2 23.5 17.5t15.5 30.5q0 6 -6 13t-14 5 q-2 0 -35 -17.5t-57 -17.5q-10 0 -10.5 -8t3.5 -12q61 -72 62 -172q0 -78 -52.5 -192t-56.5 -183q0 -4 6.5 -5t12.5 2t6 7q0 18 6 31q6 8 38 2t42 -13q20 -8 31 -43q18 4 30 -8q6 -6 10.5 -27.5t5.5 -53t0 -59.5l-2 -57q-1 -30 -1 -38q-106 -63 -342 -64q-185 1 -291 64z M2781 -33q35 4 96 37q0 10 2 54q1 29 1 52v21q-1 29 -9 43q-66 -45 -150 -51q-59 -6 -57 -21q4 -12 43 -12q55 0 51 -12q-2 -8 -41 -17q-20 -4 -20 -10q2 -12 33 -12q43 4 40 -4q-2 -4 -34 -15q-20 -6 -11 -14q8 -6 29 -4q31 2 29 -6q0 -6 -13 -10q-31 -12 -12 -19 q4 -1 10 -1t13 1zM2314 1499q12 45 16 86q25 0 25 -39q0 -47 -41 -47zM2760 971l17 8q4 18 -12.5 32.5t-39.5 12.5l-26 -8q33 -2 48 -11t13 -34zM2643 1065l17 8q4 18 -12 33q-14 13 -34 12h-5l-27 -8q33 -2 48 -11t13 -34zM2861 870l16 9q2 18 -11.5 31.5t-29.5 15.5 l-27 -8q25 -4 37.5 -13.5t14.5 -34.5zM2842 195q0 47 -22 57q-121 -55 -283 -55q-106 0 -213 47q-10 -14 -10 -49q63 -55 233 -56q84 0 177 15.5t118 40.5zM2737.5 168q-22.5 0 -22.5 22q0 25 21 25q25 0 24 -22q0 -25 -22.5 -25zM2766 221l15 8q18 0 18 -24q0 -10 -4 -15 l-20 -10q6 8 6 19q-1 18 -15 22zM2709 160l-14 -4q-18 0 -19 24q0 10 6 17l19 4q-6 -6 -6 -17q0 -14 14 -24zM395 717l-293 211h377l-119 368l306 -221l112 344l113 -344l305 221l-119 -368h377l-293 -211l293 -211h-377l119 -369l-305 221l-113 -344l-112 344l-306 -221 l119 369h-377zM778 492l332 -242l-125 393l330 240h-410l-127 387l-127 -387h-409l329 -240l-125 -393zM1047 338l-269 197l-268 -197l102 319l-264 191h328l102 309l103 -309h327l-264 -191z" />
<glyph unicode="&#x2013;" horiz-adv-x="1024" d="M204 512v204h616v-204h-616z" />
<glyph unicode="&#x2014;" horiz-adv-x="2048" d="M204 512v204h1640v-204h-1640z" />
<glyph unicode="&#x2122;" horiz-adv-x="2375" d="M1345 717l84 -27l-73 -51h96l-62 -84l86 31l-28 -88l69 53v-88l52 72l28 -84l29 84l51 -72v88l70 -53l-29 88l86 -31l-61 84h96l-74 51l84 27l-84 26l74 52h-96l61 84l-86 -31l29 88l-70 -53v88l-51 -72l-29 84l-28 -84l-52 72v-88l-69 53l28 -88l-86 31l62 -84h-96 l73 -52zM2306 717l-232 -76l199 -143h-252l152 -211l-232 75l74 -233l-201 145v-233l-141 195l-76 -230l-76 230l-141 -195v233l-201 -145l74 233l-231 -75l151 211h-252l199 143l-231 76l231 76l-199 143h252l-151 211l231 -76l-74 234l201 -146v234l141 -195l76 229 l76 -229l141 195v-234l201 146l-74 -234l232 76l-152 -211h252l-199 -143zM0 1434h819v-168h-651v-652h-168v820zM565 1217h254v-29h-225v-191h-158v-157h-190v-224h-29v252h191v129h-191v220h219v-191h129v191zM246 1188v-162h162v162h-162z" />
<glyph unicode="&#xe000;" horiz-adv-x="1435" d="M0 1435h1435v-1435h-1435v1435z" />
<glyph unicode="&#xfb01;" horiz-adv-x="3604" d="M2826 492l332 -242l-125 393l330 240h-410l-127 387l-127 -387h-409l329 -240l-125 -393zM2826 1157l103 -309h327l-264 -191l103 -319l-269 197l-268 -197l102 319l-264 191h328zM2826 436l-416 -303l156 492l-416 303h516l160 491l160 -491h516l-416 -303l156 -492z M909 156l-14 4q14 10 14 24q0 10 -6 17l19 -4q6 -6 6 -17q-1 -24 -19 -24zM823 229l15 -8q-14 -4 -15 -22q0 -10 6 -19l-20 10q-4 4 -4 15q0 24 18 24zM866.5 168q-22.5 0 -22.5 25q0 23 24 22q20 0 21 -25q0 -22 -22.5 -22zM762 195q25 -25 118 -40.5t177 -15.5 q170 0 233 56q0 35 -10 49q-106 -47 -213 -47q-162 0 -283 55q-22 -10 -22 -57zM727 879l16 -9q2 25 14.5 34t37.5 14l-27 8q-16 -2 -29.5 -15.5t-11.5 -31.5zM944 1073l17 -8q-2 25 13 34t48 11l-27 8q-23 2 -39 -12.5t-12 -32.5zM827 979l17 -8q-2 25 13 34t48 11l-26 8 q-23 2 -39.5 -12.5t-12.5 -32.5zM1290 1499q-41 0 -41 47q0 39 25 39q4 -41 16 -86zM823 -33q27 -4 27 6q2 6 -16 13q-23 8 -9 14q6 4 25 2q27 -2 31 8q2 4 -9 8q-2 2 -4 2q-33 10 -34 15q-2 8 40 4q27 -2 33 8q4 6 -10 12q-4 0 -10 2q-39 8 -41 17q-4 12 51 12q39 0 43 12 q2 14 -57 21q-84 6 -150 51q-8 -14 -9 -43v-21q0 -23 1 -52q2 -44 2 -54q61 -33 96 -37zM1333 -12q-106 -63 -291 -64q-236 0 -342 64q0 8 -1 38l-2 57q-1 28 0 59.5t5.5 53t10.5 27.5q12 12 30 8q10 35 31 43q10 6 42 12.5t38 -1.5q6 -12 6 -31q0 -4 6 -7t12.5 -2t6.5 5 q-4 70 -56.5 183.5t-52.5 191.5q0 100 62 172q4 4 4 12t-11 8q-25 0 -57.5 17.5t-34.5 17.5q-8 2 -14 -5t-6 -13q0 -14 15.5 -30t23.5 -18q6 -2 10 4.5t0 10.5t-12 8t-14.5 8t-6.5 8q0 12 17 4q12 -6 29.5 -20t17.5 -24.5t-12.5 -28t-20.5 -15.5q-35 14 -64.5 52t-29.5 67 q0 39 30.5 60.5t67.5 21.5q35 0 97.5 -26.5t103.5 -53.5q14 -10 23.5 -3t-9.5 20q-59 41 -197 88q-10 4 -10 16q0 23 33 40t63 17q47 0 84 -20q141 -84 199 -98q6 -2 10 1t3 8t-7 7q-72 29 -188 98q-47 27 -105 27q0 35 41 52.5t82 17.5q35 0 72 -23t88 -66t82 -63 q27 -20 31 -2q0 4 -2 7t-9.5 6t-11.5 7q-43 31 -53 64q-3 9 -3 20q0 29 19 74q-21 56 -20 111q0 49 16 98q-20 39 -20 105q0 20 2 42q8 96 69 97q12 0 17 -6q-14 0 -26.5 -16.5t-12.5 -39.5q0 -72 61 -71q84 -432 84 -686q0 -121 -52 -310.5t-52 -214.5q20 -4 24 -10 q10 -14 15 -49q27 -8 26 -101q0 -14 -2 -53.5t-2 -64.5z" />
<glyph unicode="&#xfb02;" horiz-adv-x="3604" d="M2826 1419l142 -434l131 98l-52 -155h455l-367 -269l132 -92h-162l137 -434l-363 264l-53 -153l-53 153l-363 -264l138 434h-162l131 92l-367 269h455l-51 155l131 -98zM2718 567h-123l-101 -317l265 192zM2660 762l-41 121h-329l266 -195zM2826 883l103 75l-103 312 l-102 -312zM3058 567h-123l-41 -125l264 -192zM3033 883l-41 -121l105 -74l266 195h-330zM909 156l-14 4q14 10 14 24q0 10 -6 17l19 -4q6 -6 6 -17q-1 -24 -19 -24zM823 229l15 -8q-14 -4 -15 -22q0 -10 6 -19l-20 10q-4 4 -4 15q0 24 18 24zM866.5 168q-22.5 0 -22.5 25 q0 23 24 22q20 0 21 -25q0 -22 -22.5 -22zM762 195q25 -25 118 -40.5t177 -15.5q170 0 233 56q0 35 -10 49q-106 -47 -213 -47q-162 0 -283 55q-22 -10 -22 -57zM727 879l16 -9q2 25 14.5 34t37.5 14l-27 8q-16 -2 -29.5 -15.5t-11.5 -31.5zM944 1073l17 -8q-2 25 13 34 t48 11l-27 8q-23 2 -39 -12.5t-12 -32.5zM827 979l17 -8q-2 25 13 34t48 11l-26 8q-23 2 -39.5 -12.5t-12.5 -32.5zM1290 1499q-41 0 -41 47q0 39 25 39q4 -41 16 -86zM823 -33q27 -4 27 6q2 6 -16 13q-23 8 -9 14q6 4 25 2q27 -2 31 8q2 4 -9 8q-2 2 -4 2q-33 10 -34 15 q-2 8 40 4q27 -2 33 8q4 6 -10 12q-4 0 -10 2q-39 8 -41 17q-4 12 51 12q39 0 43 12q2 14 -57 21q-84 6 -150 51q-8 -14 -9 -43v-21q0 -23 1 -52q2 -44 2 -54q61 -33 96 -37zM1333 -12q-106 -63 -291 -64q-236 0 -342 64q0 8 -1 38l-2 57q-1 28 0 59.5t5.5 53t10.5 27.5 q12 12 30 8q10 35 31 43q10 6 42 12.5t38 -1.5q6 -12 6 -31q0 -4 6 -7t12.5 -2t6.5 5q-4 70 -56.5 183.5t-52.5 191.5q0 100 62 172q4 4 4 12t-11 8q-25 0 -57.5 17.5t-34.5 17.5q-8 2 -14 -5t-6 -13q0 -14 15.5 -30t23.5 -18q6 -2 10 4.5t0 10.5t-12 8t-14.5 8t-6.5 8 q0 12 17 4q12 -6 29.5 -20t17.5 -24.5t-12.5 -28t-20.5 -15.5q-35 14 -64.5 52t-29.5 67q0 39 30.5 60.5t67.5 21.5q35 0 97.5 -26.5t103.5 -53.5q14 -10 23.5 -3t-9.5 20q-59 41 -197 88q-10 4 -10 16q0 23 33 40t63 17q47 0 84 -20q141 -84 199 -98q6 -2 10 1t3 8t-7 7 q-72 29 -188 98q-47 27 -105 27q0 35 41 52.5t82 17.5q35 0 72 -23t88 -66t82 -63q27 -20 31 -2q0 4 -2 7t-9.5 6t-11.5 7q-43 31 -53 64q-3 9 -3 20q0 29 19 74q-21 56 -20 111q0 49 16 98q-20 39 -20 105q0 20 2 42q8 96 69 97q12 0 17 -6q-14 0 -26.5 -16.5t-12.5 -39.5 q0 -72 61 -71q84 -432 84 -686q0 -121 -52 -310.5t-52 -214.5q20 -4 24 -10q10 -14 15 -49q27 -8 26 -101q0 -14 -2 -53.5t-2 -64.5z" />
<glyph unicode="&#xfb03;" horiz-adv-x="5652" d="M4874 492l332 -242l-125 393l330 240h-410l-127 387l-127 -387h-409l329 -240l-125 -393zM4874 1157l103 -309h327l-264 -191l103 -319l-269 197l-268 -197l102 319l-264 191h328zM4874 436l-416 -303l156 492l-416 303h516l160 491l160 -491h516l-416 -303l156 -492z M2957 156l-14 4q14 10 14 24q0 10 -6 17l19 -4q6 -6 6 -17q-1 -24 -19 -24zM2871 229l15 -8q-14 -4 -15 -22q0 -10 6 -19l-20 10q-4 4 -4 15q0 24 18 24zM2914.5 168q-22.5 0 -22.5 25q0 23 24 22q20 0 21 -25q0 -22 -22.5 -22zM2810 195q25 -25 118 -40.5t177 -15.5 q170 0 233 56q0 35 -10 49q-106 -47 -213 -47q-162 0 -283 55q-22 -10 -22 -57zM2775 879l16 -9q2 25 14.5 34t37.5 14l-27 8q-16 -2 -29.5 -15.5t-11.5 -31.5zM2992 1073l17 -8q-2 25 13 34t48 11l-27 8q-23 2 -39 -12.5t-12 -32.5zM2875 979l17 -8q-2 25 13 34t48 11 l-26 8q-23 2 -39.5 -12.5t-12.5 -32.5zM3338 1499q-41 0 -41 47q0 39 25 39q4 -41 16 -86zM2871 -33q27 -4 27 6q2 6 -16 13q-23 8 -9 14q6 4 25 2q27 -2 31 8q2 4 -9 8q-2 2 -4 2q-33 10 -34 15q-2 8 40 4q27 -2 33 8q4 6 -10 12q-4 0 -10 2q-39 8 -41 17q-4 12 51 12 q39 0 43 12q2 14 -57 21q-84 6 -150 51q-8 -14 -9 -43v-21q0 -23 1 -52q2 -44 2 -54q61 -33 96 -37zM3381 -12q-106 -63 -291 -64q-236 0 -342 64q0 8 -1 38l-2 57q-1 28 0 59.5t5.5 53t10.5 27.5q12 12 30 8q10 35 31 43q10 6 42 12.5t38 -1.5q6 -12 6 -31q0 -4 6 -7 t12.5 -2t6.5 5q-4 70 -56.5 183.5t-52.5 191.5q0 100 62 172q4 4 4 12t-11 8q-25 0 -57.5 17.5t-34.5 17.5q-8 2 -14 -5t-6 -13q0 -14 15.5 -30t23.5 -18q6 -2 10 4.5t0 10.5t-12 8t-14.5 8t-6.5 8q0 12 17 4q12 -6 29.5 -20t17.5 -24.5t-12.5 -28t-20.5 -15.5 q-35 14 -64.5 52t-29.5 67q0 39 30.5 60.5t67.5 21.5q35 0 97.5 -26.5t103.5 -53.5q14 -10 23.5 -3t-9.5 20q-59 41 -197 88q-10 4 -10 16q0 23 33 40t63 17q47 0 84 -20q141 -84 199 -98q6 -2 10 1t3 8t-7 7q-72 29 -188 98q-47 27 -105 27q0 35 41 52.5t82 17.5 q35 0 72 -23t88 -66t82 -63q27 -20 31 -2q0 4 -2 7t-9.5 6t-11.5 7q-43 31 -53 64q-3 9 -3 20q0 29 19 74q-21 56 -20 111q0 49 16 98q-20 39 -20 105q0 20 2 42q8 96 69 97q12 0 17 -6q-14 0 -26.5 -16.5t-12.5 -39.5q0 -72 61 -71q84 -432 84 -686q0 -121 -52 -310.5 t-52 -214.5q20 -4 24 -10q10 -14 15 -49q27 -8 26 -101q0 -14 -2 -53.5t-2 -64.5zM909 156l-14 4q14 10 14 24q0 10 -6 17l19 -4q6 -6 6 -17q-1 -24 -19 -24zM823 229l15 -8q-14 -4 -15 -22q0 -10 6 -19l-20 10q-4 4 -4 15q0 24 18 24zM866.5 168q-22.5 0 -22.5 25 q0 23 24 22q20 0 21 -25q0 -22 -22.5 -22zM762 195q25 -25 118 -40.5t177 -15.5q170 0 233 56q0 35 -10 49q-106 -47 -213 -47q-162 0 -283 55q-22 -10 -22 -57zM727 879l16 -9q2 25 14.5 34t37.5 14l-27 8q-16 -2 -29.5 -15.5t-11.5 -31.5zM944 1073l17 -8q-2 25 13 34 t48 11l-27 8q-23 2 -39 -12.5t-12 -32.5zM827 979l17 -8q-2 25 13 34t48 11l-26 8q-23 2 -39.5 -12.5t-12.5 -32.5zM1290 1499q-41 0 -41 47q0 39 25 39q4 -41 16 -86zM823 -33q27 -4 27 6q2 6 -16 13q-23 8 -9 14q6 4 25 2q27 -2 31 8q2 4 -9 8q-2 2 -4 2q-33 10 -34 15 q-2 8 40 4q27 -2 33 8q4 6 -10 12q-4 0 -10 2q-39 8 -41 17q-4 12 51 12q39 0 43 12q2 14 -57 21q-84 6 -150 51q-8 -14 -9 -43v-21q0 -23 1 -52q2 -44 2 -54q61 -33 96 -37zM1333 -12q-106 -63 -291 -64q-236 0 -342 64q0 8 -1 38l-2 57q-1 28 0 59.5t5.5 53t10.5 27.5 q12 12 30 8q10 35 31 43q10 6 42 12.5t38 -1.5q6 -12 6 -31q0 -4 6 -7t12.5 -2t6.5 5q-4 70 -56.5 183.5t-52.5 191.5q0 100 62 172q4 4 4 12t-11 8q-25 0 -57.5 17.5t-34.5 17.5q-8 2 -14 -5t-6 -13q0 -14 15.5 -30t23.5 -18q6 -2 10 4.5t0 10.5t-12 8t-14.5 8t-6.5 8 q0 12 17 4q12 -6 29.5 -20t17.5 -24.5t-12.5 -28t-20.5 -15.5q-35 14 -64.5 52t-29.5 67q0 39 30.5 60.5t67.5 21.5q35 0 97.5 -26.5t103.5 -53.5q14 -10 23.5 -3t-9.5 20q-59 41 -197 88q-10 4 -10 16q0 23 33 40t63 17q47 0 84 -20q141 -84 199 -98q6 -2 10 1t3 8t-7 7 q-72 29 -188 98q-47 27 -105 27q0 35 41 52.5t82 17.5q35 0 72 -23t88 -66t82 -63q27 -20 31 -2q0 4 -2 7t-9.5 6t-11.5 7q-43 31 -53 64q-3 9 -3 20q0 29 19 74q-21 56 -20 111q0 49 16 98q-20 39 -20 105q0 20 2 42q8 96 69 97q12 0 17 -6q-14 0 -26.5 -16.5t-12.5 -39.5 q0 -72 61 -71q84 -432 84 -686q0 -121 -52 -310.5t-52 -214.5q20 -4 24 -10q10 -14 15 -49q27 -8 26 -101q0 -14 -2 -53.5t-2 -64.5z" />
<glyph unicode="&#xfb04;" horiz-adv-x="5652" d="M4874 1419l142 -434l131 98l-52 -155h455l-367 -269l132 -92h-162l137 -434l-363 264l-53 -153l-53 153l-363 -264l138 434h-162l131 92l-367 269h455l-51 155l131 -98zM4766 567h-123l-101 -317l265 192zM4708 762l-41 121h-329l266 -195zM4874 883l103 75l-103 312 l-102 -312zM5106 567h-123l-41 -125l264 -192zM5081 883l-41 -121l105 -74l266 195h-330zM2957 156l-14 4q14 10 14 24q0 10 -6 17l19 -4q6 -6 6 -17q-1 -24 -19 -24zM2871 229l15 -8q-14 -4 -15 -22q0 -10 6 -19l-20 10q-4 4 -4 15q0 24 18 24zM2914.5 168 q-22.5 0 -22.5 25q0 23 24 22q20 0 21 -25q0 -22 -22.5 -22zM2810 195q25 -25 118 -40.5t177 -15.5q170 0 233 56q0 35 -10 49q-106 -47 -213 -47q-162 0 -283 55q-22 -10 -22 -57zM2775 879l16 -9q2 25 14.5 34t37.5 14l-27 8q-16 -2 -29.5 -15.5t-11.5 -31.5zM2992 1073 l17 -8q-2 25 13 34t48 11l-27 8q-23 2 -39 -12.5t-12 -32.5zM2875 979l17 -8q-2 25 13 34t48 11l-26 8q-23 2 -39.5 -12.5t-12.5 -32.5zM3338 1499q-41 0 -41 47q0 39 25 39q4 -41 16 -86zM2871 -33q27 -4 27 6q2 6 -16 13q-23 8 -9 14q6 4 25 2q27 -2 31 8q2 4 -9 8 q-2 2 -4 2q-33 10 -34 15q-2 8 40 4q27 -2 33 8q4 6 -10 12q-4 0 -10 2q-39 8 -41 17q-4 12 51 12q39 0 43 12q2 14 -57 21q-84 6 -150 51q-8 -14 -9 -43v-21q0 -23 1 -52q2 -44 2 -54q61 -33 96 -37zM3381 -12q-106 -63 -291 -64q-236 0 -342 64q0 8 -1 38l-2 57 q-1 28 0 59.5t5.5 53t10.5 27.5q12 12 30 8q10 35 31 43q10 6 42 12.5t38 -1.5q6 -12 6 -31q0 -4 6 -7t12.5 -2t6.5 5q-4 70 -56.5 183.5t-52.5 191.5q0 100 62 172q4 4 4 12t-11 8q-25 0 -57.5 17.5t-34.5 17.5q-8 2 -14 -5t-6 -13q0 -14 15.5 -30t23.5 -18q6 -2 10 4.5 t0 10.5t-12 8t-14.5 8t-6.5 8q0 12 17 4q12 -6 29.5 -20t17.5 -24.5t-12.5 -28t-20.5 -15.5q-35 14 -64.5 52t-29.5 67q0 39 30.5 60.5t67.5 21.5q35 0 97.5 -26.5t103.5 -53.5q14 -10 23.5 -3t-9.5 20q-59 41 -197 88q-10 4 -10 16q0 23 33 40t63 17q47 0 84 -20 q141 -84 199 -98q6 -2 10 1t3 8t-7 7q-72 29 -188 98q-47 27 -105 27q0 35 41 52.5t82 17.5q35 0 72 -23t88 -66t82 -63q27 -20 31 -2q0 4 -2 7t-9.5 6t-11.5 7q-43 31 -53 64q-3 9 -3 20q0 29 19 74q-21 56 -20 111q0 49 16 98q-20 39 -20 105q0 20 2 42q8 96 69 97 q12 0 17 -6q-14 0 -26.5 -16.5t-12.5 -39.5q0 -72 61 -71q84 -432 84 -686q0 -121 -52 -310.5t-52 -214.5q20 -4 24 -10q10 -14 15 -49q27 -8 26 -101q0 -14 -2 -53.5t-2 -64.5zM909 156l-14 4q14 10 14 24q0 10 -6 17l19 -4q6 -6 6 -17q-1 -24 -19 -24zM823 229l15 -8 q-14 -4 -15 -22q0 -10 6 -19l-20 10q-4 4 -4 15q0 24 18 24zM866.5 168q-22.5 0 -22.5 25q0 23 24 22q20 0 21 -25q0 -22 -22.5 -22zM762 195q25 -25 118 -40.5t177 -15.5q170 0 233 56q0 35 -10 49q-106 -47 -213 -47q-162 0 -283 55q-22 -10 -22 -57zM727 879l16 -9 q2 25 14.5 34t37.5 14l-27 8q-16 -2 -29.5 -15.5t-11.5 -31.5zM944 1073l17 -8q-2 25 13 34t48 11l-27 8q-23 2 -39 -12.5t-12 -32.5zM827 979l17 -8q-2 25 13 34t48 11l-26 8q-23 2 -39.5 -12.5t-12.5 -32.5zM1290 1499q-41 0 -41 47q0 39 25 39q4 -41 16 -86zM823 -33 q27 -4 27 6q2 6 -16 13q-23 8 -9 14q6 4 25 2q27 -2 31 8q2 4 -9 8q-2 2 -4 2q-33 10 -34 15q-2 8 40 4q27 -2 33 8q4 6 -10 12q-4 0 -10 2q-39 8 -41 17q-4 12 51 12q39 0 43 12q2 14 -57 21q-84 6 -150 51q-8 -14 -9 -43v-21q0 -23 1 -52q2 -44 2 -54q61 -33 96 -37z M1333 -12q-106 -63 -291 -64q-236 0 -342 64q0 8 -1 38l-2 57q-1 28 0 59.5t5.5 53t10.5 27.5q12 12 30 8q10 35 31 43q10 6 42 12.5t38 -1.5q6 -12 6 -31q0 -4 6 -7t12.5 -2t6.5 5q-4 70 -56.5 183.5t-52.5 191.5q0 100 62 172q4 4 4 12t-11 8q-25 0 -57.5 17.5t-34.5 17.5 q-8 2 -14 -5t-6 -13q0 -14 15.5 -30t23.5 -18q6 -2 10 4.5t0 10.5t-12 8t-14.5 8t-6.5 8q0 12 17 4q12 -6 29.5 -20t17.5 -24.5t-12.5 -28t-20.5 -15.5q-35 14 -64.5 52t-29.5 67q0 39 30.5 60.5t67.5 21.5q35 0 97.5 -26.5t103.5 -53.5q14 -10 23.5 -3t-9.5 20 q-59 41 -197 88q-10 4 -10 16q0 23 33 40t63 17q47 0 84 -20q141 -84 199 -98q6 -2 10 1t3 8t-7 7q-72 29 -188 98q-47 27 -105 27q0 35 41 52.5t82 17.5q35 0 72 -23t88 -66t82 -63q27 -20 31 -2q0 4 -2 7t-9.5 6t-11.5 7q-43 31 -53 64q-3 9 -3 20q0 29 19 74 q-21 56 -20 111q0 49 16 98q-20 39 -20 105q0 20 2 42q8 96 69 97q12 0 17 -6q-14 0 -26.5 -16.5t-12.5 -39.5q0 -72 61 -71q84 -432 84 -686q0 -121 -52 -310.5t-52 -214.5q20 -4 24 -10q10 -14 15 -49q27 -8 26 -101q0 -14 -2 -53.5t-2 -64.5z" />
</font>
</defs>
</svg>
